<mxfile host="Electron" modified="2025-03-13T15:01:04.225Z" agent="Mozilla/5.0 (Windows NT 10.0; Win64; x64) AppleWebKit/537.36 (KHTML, like Gecko) draw.io/23.0.2 Chrome/120.0.6099.109 Electron/28.1.0 Safari/537.36" etag="t62WssN_v_E579iBoQw0" version="23.0.2" type="device">
  <diagram name="Page-1" id="VmJEM63dlZ8Z077wUYMp">
    <mxGraphModel dx="3007" dy="3276" grid="0" gridSize="10" guides="1" tooltips="1" connect="1" arrows="1" fold="1" page="0" pageScale="1" pageWidth="1100" pageHeight="850" math="0" shadow="0">
      <root>
        <mxCell id="0" />
        <mxCell id="1" parent="0" />
        <mxCell id="uESaPEaGpG72Nl8H6VJj-3" value="https://www...com" style="strokeWidth=1;shadow=0;dashed=0;align=center;html=1;shape=mxgraph.mockup.containers.window;align=left;verticalAlign=top;spacingLeft=8;strokeColor2=#008cff;strokeColor3=#c4c4c4;fontColor=#666666;mainText=;fontSize=17;labelBackgroundColor=none;whiteSpace=wrap;" parent="1" vertex="1">
          <mxGeometry x="504" y="-785" width="457" height="255" as="geometry" />
        </mxCell>
        <mxCell id="a5dCra-difjXm44AHX22-107" value="https://www...com/flied_clinic" style="strokeWidth=1;shadow=0;dashed=0;align=center;html=1;shape=mxgraph.mockup.containers.window;align=left;verticalAlign=top;spacingLeft=8;strokeColor2=#008cff;strokeColor3=#c4c4c4;fontColor=#666666;mainText=;fontSize=17;labelBackgroundColor=none;whiteSpace=wrap;" parent="1" vertex="1">
          <mxGeometry x="558" y="-293.5" width="432" height="369" as="geometry" />
        </mxCell>
        <mxCell id="a5dCra-difjXm44AHX22-106" value="https://www...com/flied_clinic" style="strokeWidth=1;shadow=0;dashed=0;align=center;html=1;shape=mxgraph.mockup.containers.window;align=left;verticalAlign=top;spacingLeft=8;strokeColor2=#008cff;strokeColor3=#c4c4c4;fontColor=#666666;mainText=;fontSize=17;labelBackgroundColor=none;whiteSpace=wrap;" parent="1" vertex="1">
          <mxGeometry x="-17" y="-355" width="434" height="539" as="geometry" />
        </mxCell>
        <mxCell id="a5dCra-difjXm44AHX22-1" value="" style="rounded=0;whiteSpace=wrap;html=1;fontSize=16;" parent="1" vertex="1">
          <mxGeometry x="94" y="-307.5" width="222" height="24" as="geometry" />
        </mxCell>
        <mxCell id="a5dCra-difjXm44AHX22-2" value="Name:" style="text;html=1;strokeColor=none;fillColor=none;align=center;verticalAlign=middle;whiteSpace=wrap;rounded=0;fontSize=16;" parent="1" vertex="1">
          <mxGeometry x="34" y="-307.5" width="60" height="24" as="geometry" />
        </mxCell>
        <mxCell id="a5dCra-difjXm44AHX22-5" value="" style="rounded=0;whiteSpace=wrap;html=1;fontSize=16;" parent="1" vertex="1">
          <mxGeometry x="94" y="-273.5" width="305" height="62.5" as="geometry" />
        </mxCell>
        <mxCell id="a5dCra-difjXm44AHX22-6" value="Symptoms:" style="text;html=1;strokeColor=none;fillColor=none;align=center;verticalAlign=middle;whiteSpace=wrap;rounded=0;fontSize=16;" parent="1" vertex="1">
          <mxGeometry x="3" y="-273.5" width="87" height="27" as="geometry" />
        </mxCell>
        <mxCell id="a5dCra-difjXm44AHX22-7" value="" style="group" parent="1" vertex="1" connectable="0">
          <mxGeometry x="320" y="-309" width="79" height="27" as="geometry" />
        </mxCell>
        <mxCell id="a5dCra-difjXm44AHX22-3" value="" style="rounded=0;whiteSpace=wrap;html=1;fontSize=16;" parent="a5dCra-difjXm44AHX22-7" vertex="1">
          <mxGeometry x="43" y="1.5" width="36" height="24" as="geometry" />
        </mxCell>
        <mxCell id="a5dCra-difjXm44AHX22-4" value="Age:" style="text;html=1;strokeColor=none;fillColor=none;align=center;verticalAlign=middle;whiteSpace=wrap;rounded=0;fontSize=16;" parent="a5dCra-difjXm44AHX22-7" vertex="1">
          <mxGeometry width="43" height="27" as="geometry" />
        </mxCell>
        <mxCell id="a5dCra-difjXm44AHX22-8" value="" style="rounded=0;whiteSpace=wrap;html=1;fontSize=16;" parent="1" vertex="1">
          <mxGeometry x="3" y="-116" width="397" height="280" as="geometry" />
        </mxCell>
        <mxCell id="a5dCra-difjXm44AHX22-10" style="edgeStyle=none;curved=1;rounded=0;orthogonalLoop=1;jettySize=auto;html=1;fontSize=12;startSize=8;endSize=8;strokeColor=#949494;" parent="1" source="a5dCra-difjXm44AHX22-9" target="a5dCra-difjXm44AHX22-1" edge="1">
          <mxGeometry relative="1" as="geometry">
            <mxPoint x="197" y="-370" as="targetPoint" />
          </mxGeometry>
        </mxCell>
        <mxCell id="a5dCra-difjXm44AHX22-9" value="autofill if name is recognizable&amp;nbsp;" style="text;html=1;align=center;verticalAlign=middle;resizable=0;points=[];autosize=1;strokeColor=none;fillColor=none;fontSize=16;" parent="1" vertex="1">
          <mxGeometry x="128" y="-445" width="237" height="31" as="geometry" />
        </mxCell>
        <mxCell id="a5dCra-difjXm44AHX22-15" value="" style="group" parent="1" vertex="1" connectable="0">
          <mxGeometry x="14" y="-99" width="374" height="35" as="geometry" />
        </mxCell>
        <mxCell id="a5dCra-difjXm44AHX22-12" value="Patient name" style="rounded=0;whiteSpace=wrap;html=1;fontSize=16;align=center;" parent="a5dCra-difjXm44AHX22-15" vertex="1">
          <mxGeometry width="374" height="35" as="geometry" />
        </mxCell>
        <mxCell id="a5dCra-difjXm44AHX22-13" value="U" style="rounded=0;whiteSpace=wrap;html=1;fontSize=16;" parent="a5dCra-difjXm44AHX22-15" vertex="1">
          <mxGeometry x="5" y="4" width="30" height="27" as="geometry" />
        </mxCell>
        <mxCell id="a5dCra-difjXm44AHX22-14" value="P" style="rounded=0;whiteSpace=wrap;html=1;fontSize=16;" parent="a5dCra-difjXm44AHX22-15" vertex="1">
          <mxGeometry x="40" y="4" width="30" height="27" as="geometry" />
        </mxCell>
        <mxCell id="a5dCra-difjXm44AHX22-17" value="" style="group" parent="1" vertex="1" connectable="0">
          <mxGeometry x="14" y="-56" width="374" height="35" as="geometry" />
        </mxCell>
        <mxCell id="a5dCra-difjXm44AHX22-18" value="Patient name" style="rounded=0;whiteSpace=wrap;html=1;fontSize=16;align=center;" parent="a5dCra-difjXm44AHX22-17" vertex="1">
          <mxGeometry width="374" height="35" as="geometry" />
        </mxCell>
        <mxCell id="a5dCra-difjXm44AHX22-19" value="U" style="rounded=0;whiteSpace=wrap;html=1;fontSize=16;" parent="a5dCra-difjXm44AHX22-17" vertex="1">
          <mxGeometry x="5" y="4" width="30" height="27" as="geometry" />
        </mxCell>
        <mxCell id="a5dCra-difjXm44AHX22-20" value="P" style="rounded=0;whiteSpace=wrap;html=1;fontSize=16;" parent="a5dCra-difjXm44AHX22-17" vertex="1">
          <mxGeometry x="40" y="4" width="30" height="27" as="geometry" />
        </mxCell>
        <mxCell id="a5dCra-difjXm44AHX22-21" value="" style="group" parent="1" vertex="1" connectable="0">
          <mxGeometry x="14" y="-12" width="374" height="35" as="geometry" />
        </mxCell>
        <mxCell id="a5dCra-difjXm44AHX22-22" value="Patient name" style="rounded=0;whiteSpace=wrap;html=1;fontSize=16;align=center;" parent="a5dCra-difjXm44AHX22-21" vertex="1">
          <mxGeometry width="374" height="35" as="geometry" />
        </mxCell>
        <mxCell id="a5dCra-difjXm44AHX22-23" value="U" style="rounded=0;whiteSpace=wrap;html=1;fontSize=16;" parent="a5dCra-difjXm44AHX22-21" vertex="1">
          <mxGeometry x="5" y="4" width="30" height="27" as="geometry" />
        </mxCell>
        <mxCell id="a5dCra-difjXm44AHX22-24" value="P" style="rounded=0;whiteSpace=wrap;html=1;fontSize=16;" parent="a5dCra-difjXm44AHX22-21" vertex="1">
          <mxGeometry x="40" y="4" width="30" height="27" as="geometry" />
        </mxCell>
        <mxCell id="a5dCra-difjXm44AHX22-29" value="" style="group" parent="1" vertex="1" connectable="0">
          <mxGeometry x="14" y="31" width="374" height="35" as="geometry" />
        </mxCell>
        <mxCell id="a5dCra-difjXm44AHX22-30" value="Patient name" style="rounded=0;whiteSpace=wrap;html=1;fontSize=16;align=center;" parent="a5dCra-difjXm44AHX22-29" vertex="1">
          <mxGeometry width="374" height="35" as="geometry" />
        </mxCell>
        <mxCell id="a5dCra-difjXm44AHX22-31" value="U" style="rounded=0;whiteSpace=wrap;html=1;fontSize=16;" parent="a5dCra-difjXm44AHX22-29" vertex="1">
          <mxGeometry x="5" y="4" width="30" height="27" as="geometry" />
        </mxCell>
        <mxCell id="a5dCra-difjXm44AHX22-33" value="" style="group" parent="1" vertex="1" connectable="0">
          <mxGeometry x="14" y="75" width="374" height="35" as="geometry" />
        </mxCell>
        <mxCell id="a5dCra-difjXm44AHX22-43" value="" style="group" parent="a5dCra-difjXm44AHX22-33" vertex="1" connectable="0">
          <mxGeometry width="374" height="35" as="geometry" />
        </mxCell>
        <mxCell id="a5dCra-difjXm44AHX22-34" value="&lt;font color=&quot;#808080&quot;&gt;Patient name&lt;/font&gt;" style="rounded=0;whiteSpace=wrap;html=1;fontSize=16;align=center;fillColor=none;strokeColor=#a3a3a3;" parent="a5dCra-difjXm44AHX22-43" vertex="1">
          <mxGeometry width="374" height="35" as="geometry" />
        </mxCell>
        <mxCell id="a5dCra-difjXm44AHX22-41" value="P" style="rounded=0;whiteSpace=wrap;html=1;fontSize=16;strokeColor=#919191;fontColor=#8A8A8A;" parent="a5dCra-difjXm44AHX22-43" vertex="1">
          <mxGeometry x="39" y="4" width="30" height="27" as="geometry" />
        </mxCell>
        <mxCell id="a5dCra-difjXm44AHX22-44" value="" style="group" parent="1" vertex="1" connectable="0">
          <mxGeometry x="14" y="117" width="374" height="35" as="geometry" />
        </mxCell>
        <mxCell id="a5dCra-difjXm44AHX22-45" value="" style="group" parent="a5dCra-difjXm44AHX22-44" vertex="1" connectable="0">
          <mxGeometry width="374" height="35" as="geometry" />
        </mxCell>
        <mxCell id="a5dCra-difjXm44AHX22-46" value="&lt;font color=&quot;#808080&quot;&gt;Patient name&lt;/font&gt;" style="rounded=0;whiteSpace=wrap;html=1;fontSize=16;align=center;fillColor=none;strokeColor=#a3a3a3;" parent="a5dCra-difjXm44AHX22-45" vertex="1">
          <mxGeometry width="374" height="35" as="geometry" />
        </mxCell>
        <mxCell id="a5dCra-difjXm44AHX22-47" value="P" style="rounded=0;whiteSpace=wrap;html=1;fontSize=16;strokeColor=#919191;fontColor=#8A8A8A;" parent="a5dCra-difjXm44AHX22-45" vertex="1">
          <mxGeometry x="39" y="4" width="30" height="27" as="geometry" />
        </mxCell>
        <mxCell id="a5dCra-difjXm44AHX22-52" style="edgeStyle=none;curved=1;rounded=0;orthogonalLoop=1;jettySize=auto;html=1;fontSize=12;startSize=8;endSize=8;labelBorderColor=none;" parent="1" source="a5dCra-difjXm44AHX22-48" target="a5dCra-difjXm44AHX22-13" edge="1">
          <mxGeometry relative="1" as="geometry" />
        </mxCell>
        <mxCell id="a5dCra-difjXm44AHX22-48" value="Unchecked" style="text;html=1;align=center;verticalAlign=middle;resizable=0;points=[];autosize=1;fontSize=16;labelBorderColor=none;" parent="1" vertex="1">
          <mxGeometry x="-244" y="-187.5" width="98" height="31" as="geometry" />
        </mxCell>
        <mxCell id="a5dCra-difjXm44AHX22-51" style="edgeStyle=none;curved=1;rounded=0;orthogonalLoop=1;jettySize=auto;html=1;fontSize=12;startSize=8;endSize=8;labelBorderColor=none;" parent="1" source="a5dCra-difjXm44AHX22-50" target="a5dCra-difjXm44AHX22-14" edge="1">
          <mxGeometry relative="1" as="geometry" />
        </mxCell>
        <mxCell id="a5dCra-difjXm44AHX22-50" value="pneumonia suspected" style="text;html=1;align=center;verticalAlign=middle;resizable=0;points=[];autosize=1;fontSize=16;labelBorderColor=none;" parent="1" vertex="1">
          <mxGeometry x="-262" y="-112" width="175" height="31" as="geometry" />
        </mxCell>
        <mxCell id="a5dCra-difjXm44AHX22-55" style="edgeStyle=none;curved=1;rounded=0;orthogonalLoop=1;jettySize=auto;html=1;fontSize=12;startSize=8;endSize=8;" parent="1" source="a5dCra-difjXm44AHX22-54" target="a5dCra-difjXm44AHX22-46" edge="1">
          <mxGeometry relative="1" as="geometry" />
        </mxCell>
        <mxCell id="a5dCra-difjXm44AHX22-56" style="edgeStyle=none;curved=1;rounded=0;orthogonalLoop=1;jettySize=auto;html=1;fontSize=12;startSize=8;endSize=8;" parent="1" source="a5dCra-difjXm44AHX22-54" target="a5dCra-difjXm44AHX22-34" edge="1">
          <mxGeometry relative="1" as="geometry" />
        </mxCell>
        <mxCell id="a5dCra-difjXm44AHX22-54" value="checked" style="text;html=1;align=center;verticalAlign=middle;resizable=0;points=[];autosize=1;strokeColor=none;fillColor=none;fontSize=16;" parent="1" vertex="1">
          <mxGeometry x="-268" y="39" width="78" height="31" as="geometry" />
        </mxCell>
        <mxCell id="a5dCra-difjXm44AHX22-69" value="" style="rounded=0;whiteSpace=wrap;html=1;fontSize=16;" parent="1" vertex="1">
          <mxGeometry x="576" y="-241.5" width="397" height="295" as="geometry" />
        </mxCell>
        <mxCell id="a5dCra-difjXm44AHX22-72" value="" style="group" parent="1" vertex="1" connectable="0">
          <mxGeometry x="587" y="-228.5" width="374" height="35" as="geometry" />
        </mxCell>
        <mxCell id="a5dCra-difjXm44AHX22-73" value="Patient name" style="rounded=0;whiteSpace=wrap;html=1;fontSize=16;align=center;" parent="a5dCra-difjXm44AHX22-72" vertex="1">
          <mxGeometry width="374" height="35" as="geometry" />
        </mxCell>
        <mxCell id="a5dCra-difjXm44AHX22-74" value="U" style="rounded=0;whiteSpace=wrap;html=1;fontSize=16;" parent="a5dCra-difjXm44AHX22-72" vertex="1">
          <mxGeometry x="5" y="4" width="30" height="27" as="geometry" />
        </mxCell>
        <mxCell id="a5dCra-difjXm44AHX22-75" value="P" style="rounded=0;whiteSpace=wrap;html=1;fontSize=16;" parent="a5dCra-difjXm44AHX22-72" vertex="1">
          <mxGeometry x="40" y="4" width="30" height="27" as="geometry" />
        </mxCell>
        <mxCell id="a5dCra-difjXm44AHX22-76" value="" style="group" parent="1" vertex="1" connectable="0">
          <mxGeometry x="587" y="-185.5" width="374" height="35" as="geometry" />
        </mxCell>
        <mxCell id="a5dCra-difjXm44AHX22-77" value="Patient name" style="rounded=0;whiteSpace=wrap;html=1;fontSize=16;align=center;" parent="a5dCra-difjXm44AHX22-76" vertex="1">
          <mxGeometry width="374" height="35" as="geometry" />
        </mxCell>
        <mxCell id="a5dCra-difjXm44AHX22-78" value="U" style="rounded=0;whiteSpace=wrap;html=1;fontSize=16;" parent="a5dCra-difjXm44AHX22-76" vertex="1">
          <mxGeometry x="5" y="4" width="30" height="27" as="geometry" />
        </mxCell>
        <mxCell id="a5dCra-difjXm44AHX22-79" value="P" style="rounded=0;whiteSpace=wrap;html=1;fontSize=16;" parent="a5dCra-difjXm44AHX22-76" vertex="1">
          <mxGeometry x="40" y="4" width="30" height="27" as="geometry" />
        </mxCell>
        <mxCell id="a5dCra-difjXm44AHX22-80" value="" style="group" parent="1" vertex="1" connectable="0">
          <mxGeometry x="587" y="-141.5" width="374" height="35" as="geometry" />
        </mxCell>
        <mxCell id="a5dCra-difjXm44AHX22-81" value="Patient name" style="rounded=0;whiteSpace=wrap;html=1;fontSize=16;align=center;" parent="a5dCra-difjXm44AHX22-80" vertex="1">
          <mxGeometry width="374" height="35" as="geometry" />
        </mxCell>
        <mxCell id="a5dCra-difjXm44AHX22-82" value="U" style="rounded=0;whiteSpace=wrap;html=1;fontSize=16;" parent="a5dCra-difjXm44AHX22-80" vertex="1">
          <mxGeometry x="5" y="4" width="30" height="27" as="geometry" />
        </mxCell>
        <mxCell id="a5dCra-difjXm44AHX22-83" value="P" style="rounded=0;whiteSpace=wrap;html=1;fontSize=16;" parent="a5dCra-difjXm44AHX22-80" vertex="1">
          <mxGeometry x="40" y="4" width="30" height="27" as="geometry" />
        </mxCell>
        <mxCell id="a5dCra-difjXm44AHX22-84" value="" style="group" parent="1" vertex="1" connectable="0">
          <mxGeometry x="587" y="-98.5" width="374" height="35" as="geometry" />
        </mxCell>
        <mxCell id="a5dCra-difjXm44AHX22-85" value="Patient name" style="rounded=0;whiteSpace=wrap;html=1;fontSize=16;align=center;" parent="a5dCra-difjXm44AHX22-84" vertex="1">
          <mxGeometry width="374" height="35" as="geometry" />
        </mxCell>
        <mxCell id="a5dCra-difjXm44AHX22-86" value="U" style="rounded=0;whiteSpace=wrap;html=1;fontSize=16;" parent="a5dCra-difjXm44AHX22-84" vertex="1">
          <mxGeometry x="5" y="4" width="30" height="27" as="geometry" />
        </mxCell>
        <mxCell id="a5dCra-difjXm44AHX22-87" value="" style="group" parent="1" vertex="1" connectable="0">
          <mxGeometry x="587" y="-54.5" width="374" height="35" as="geometry" />
        </mxCell>
        <mxCell id="a5dCra-difjXm44AHX22-88" value="" style="group" parent="a5dCra-difjXm44AHX22-87" vertex="1" connectable="0">
          <mxGeometry width="374" height="35" as="geometry" />
        </mxCell>
        <mxCell id="a5dCra-difjXm44AHX22-89" value="&lt;font color=&quot;#808080&quot;&gt;Patient name&lt;/font&gt;" style="rounded=0;whiteSpace=wrap;html=1;fontSize=16;align=center;fillColor=none;strokeColor=#a3a3a3;" parent="a5dCra-difjXm44AHX22-88" vertex="1">
          <mxGeometry width="374" height="35" as="geometry" />
        </mxCell>
        <mxCell id="a5dCra-difjXm44AHX22-90" value="P" style="rounded=0;whiteSpace=wrap;html=1;fontSize=16;strokeColor=#919191;fontColor=#8A8A8A;" parent="a5dCra-difjXm44AHX22-88" vertex="1">
          <mxGeometry x="39" y="4" width="30" height="27" as="geometry" />
        </mxCell>
        <mxCell id="a5dCra-difjXm44AHX22-91" value="" style="group" parent="1" vertex="1" connectable="0">
          <mxGeometry x="587" y="-12.5" width="374" height="35" as="geometry" />
        </mxCell>
        <mxCell id="a5dCra-difjXm44AHX22-92" value="" style="group" parent="a5dCra-difjXm44AHX22-91" vertex="1" connectable="0">
          <mxGeometry width="374" height="35" as="geometry" />
        </mxCell>
        <mxCell id="a5dCra-difjXm44AHX22-93" value="&lt;font color=&quot;#808080&quot;&gt;Patient name&lt;/font&gt;" style="rounded=0;whiteSpace=wrap;html=1;fontSize=16;align=center;fillColor=none;strokeColor=#a3a3a3;" parent="a5dCra-difjXm44AHX22-92" vertex="1">
          <mxGeometry width="374" height="35" as="geometry" />
        </mxCell>
        <mxCell id="a5dCra-difjXm44AHX22-94" value="P" style="rounded=0;whiteSpace=wrap;html=1;fontSize=16;strokeColor=#919191;fontColor=#8A8A8A;" parent="a5dCra-difjXm44AHX22-92" vertex="1">
          <mxGeometry x="39" y="4" width="30" height="27" as="geometry" />
        </mxCell>
        <mxCell id="a5dCra-difjXm44AHX22-102" value="&lt;h1&gt;Health worker view&lt;/h1&gt;" style="text;html=1;strokeColor=none;fillColor=none;spacing=5;spacingTop=-20;whiteSpace=wrap;overflow=hidden;rounded=0;fontSize=16;" parent="1" vertex="1">
          <mxGeometry x="66" y="-510" width="309" height="65" as="geometry" />
        </mxCell>
        <mxCell id="a5dCra-difjXm44AHX22-103" value="&lt;h1&gt;Expert clinicians view&amp;nbsp;&lt;/h1&gt;" style="text;html=1;strokeColor=none;fillColor=none;spacing=5;spacingTop=-20;whiteSpace=wrap;overflow=hidden;rounded=0;fontSize=16;" parent="1" vertex="1">
          <mxGeometry x="595" y="-450" width="363" height="67" as="geometry" />
        </mxCell>
        <mxCell id="a5dCra-difjXm44AHX22-105" value="Submit" style="rounded=0;whiteSpace=wrap;html=1;fontSize=16;fillColor=#ffcc99;strokeColor=#36393d;fontColor=#000000;" parent="1" vertex="1">
          <mxGeometry x="245" y="-164.5" width="154" height="27" as="geometry" />
        </mxCell>
        <mxCell id="a5dCra-difjXm44AHX22-108" value="Expert view" style="strokeWidth=1;shadow=0;dashed=0;align=center;html=1;shape=mxgraph.mockup.containers.window;align=left;verticalAlign=top;spacingLeft=8;strokeColor2=#008cff;strokeColor3=#c4c4c4;fontColor=#666666;mainText=;fontSize=17;labelBackgroundColor=none;whiteSpace=wrap;" parent="1" vertex="1">
          <mxGeometry x="1125" y="-445" width="702" height="1003.5" as="geometry" />
        </mxCell>
        <mxCell id="a5dCra-difjXm44AHX22-109" style="edgeStyle=none;curved=1;rounded=0;orthogonalLoop=1;jettySize=auto;html=1;fontSize=12;startSize=8;endSize=8;" parent="1" source="a5dCra-difjXm44AHX22-73" edge="1">
          <mxGeometry relative="1" as="geometry">
            <mxPoint x="1123" y="-214.5" as="targetPoint" />
          </mxGeometry>
        </mxCell>
        <mxCell id="a5dCra-difjXm44AHX22-110" value="Click" style="edgeLabel;html=1;align=center;verticalAlign=middle;resizable=0;points=[];fontSize=16;" parent="a5dCra-difjXm44AHX22-109" vertex="1" connectable="0">
          <mxGeometry x="0.0359" relative="1" as="geometry">
            <mxPoint as="offset" />
          </mxGeometry>
        </mxCell>
        <mxCell id="a5dCra-difjXm44AHX22-111" value="" style="shape=image;verticalLabelPosition=bottom;labelBackgroundColor=default;verticalAlign=top;aspect=fixed;imageAspect=0;image=data:image/jpeg,/9j/4AAQSkZJRgABAQAAAAAAAAD/2wBDAAgGBgcGBQgHBwcJCQgKDBQNDAsLDBkSEw8UHRofHh0aHBwgJC4nICIsIxwcKDcpLDAxNDQ0Hyc5PTgyPC4zNDL/wAALCAD6APoBAREA/8QAGgAAAwEBAQEAAAAAAAAAAAAAAAMEAgEFCP/EACoQAAMBAAIBBAIBBAIDAAAAAAABAgMRITETQVFhBBKRInGBoTJCUrHR/9oACAEBAAA/APn8AAAAANKWzSzNrM0szSzNLM76Yemc9My8zDgw4MOTPAAAAAAAAAAAGlJqZGzA2YNqDazOrM16fXg5+n0d/U44OPPow8zDzF1mJcmHJngAAAAAAAAEuTcyMUm5kfMDZgZMG1BpR2MWfR30kZ9FB6SOPPoU4F1AqoJ9M+Oxbkw5MNcHAAAAAADqXJuZGzJtSNmH8FMZ/Q2c38DFmbWfXg1OY6c/o16Rz0jLzMvPoTWYt5/QqsxV5crjglqGvYU5MNGGjIAAAAHUuRkyOmRsz9DZkbOfJXGfQ6cxk5mvSZqcu/A5Z8HVCD9EYqDFZ9Cnn9GXkKrMTWZPrl78EtQKrMU4FuTIAAAC7GTI6ZGzwjcsbPLKMobotiOh0wOmGjcyNjPljfR6D0WZ9Gvg56D57Csf6RDz4YqpffCFVIioYm48kW0uXz7E9c/BhyKqRTXBkAADcyNlDJRtTz0OnPhDc55LsM+vBbEDZgYpGxHQ7PPllKg6s/PRz0zPpmKjomrMRcCagVWfQmoJtc+U0QaR+raYil2YYukKa4OAB2UNlDZQ2UNiGx0wVZYpl+eS6KozHLPobniOWa4fQzLPhspnM0s/7HPTM1mKvMneYmsxNZIVWYi80TaZ+SPbHlMhuHL7QmkLpLgTSMAAyUNmR0wOlcDoXyOySXuVY0v2PQzaorhLjyPiZ4+SnOE+xyy5XRvPJcj/AEWu0cWbXR39DDj2Rmsn+oh5eRNZ8ciLhE+kpE9JNE9yibSSLbPyR3C7EVImp4FNHDsrsdKHQhstI2qNrnkohMryXLXHB6GPHBZmvoqznwizKOiiM/4HZZp134K/0XAemjnov24/gz6KXbMaQknyR1HwT3HyT3C4JtI6ZJUibkluCTSWiHVcc8oRST8CqQikLGQh0m1yxkyMlcMdE8srmHx4HZS17M9D8eX10ehlm3w+CzPJ9ddlueb9yicuuh+Mc1wVzn0a9FMPR665MOBGufRJcP8AyS3m++RF59dEtz01wSXPbFXHRLpJHpPkh1jyRXPFNC3yKpCuDcDZQ6JZREIdGSfsUxKllEsfkkelhK/yXZQ/D7Ls55RZlK8cFE58LwOxz/q6KlHC8G+H8A114Qpzz7Cbz5XLJbz7ZNcInqCXSOn0SXC5fRPcL4JtIXDIdM12R65kOseeiakJpCzUofBRElMJLzwb9Re3ZuL4fgZGtPxwinO6XbZ6f491yuz1Mapcd/6Lsap9dfwWZN+XwW5cUvBX+PmqfSLVgmlz54D0F9nKwnjoU8FzyK1x4n5ItI45JNOvCI9G0+v/AETaN/X8EmnKfaJ7f0S6Poi09yS/ck0ki0nhk9IUbgdLSHRTGz2bkdn2NzhyymXxHPuj0Pw3ThPzx5PYxTaXPwX4pIrz6Zbm1x8Ho/i8qvJ6MLkas+UZ9LhcsVUf4JNeUnx8Hn6ryQ6/5I9CbRE2i6JNF0RakepHpz5RNbJdOGiW0L4CRsDs+W+h8S+PsbGf32UTlwumU55J+7KJ/HT455L/AML8dzfDbS+z2Mc112+y7LNeeyzLNLn3Lc44nwW/jLhnqYyvPJTMz8r+TNQv18omtL5RHsueSDSeeUQ6R2yLSO/JNpD77TJNIZJpL4ZFrPXgh1RJZLfuR6Imba6ZjlGoQ6I+CnOGU54tlOf4/wBlMYJLgoy/Hn5LMs4S4+CnL9Zvp/36PSxqEvP+i7Jr5RXi1y+KXBbHKS58F34kt8tnpxm02uP7FOeb/XwzNxwn0R3L76J9Zf6Nnn6dN8kWnuR6S2SaLj2JdPHZFp7kerItPcj0ldkek+STSfJJfTYvkbmivNFWaRTmuiqEPlNlGclOcpdryURHXK8lGSa8l+b4XRXg01zx5PQxb+T1fwuH+3LPTivvobOnC89BejaJ7fnkl3/qT445R5e3RBrTa+vo87R8N8Nkmj8+7JdH17kej45/+kmlP2ZJpp5JrryS6cdkmhJohPA7NlWbKsyrMqgohFWRRCKIXRRnJTHS6Ksef9noZ0545XKPS/F0SXRfGjY5aHfVXHYqtOiTbTz2ebtfCbbPP1vrwQ6V5JNGTW+EyLR+SPR+STR+SWyXRtE9V8k+j5FG82VZsrzKsyrNFecorzSKs0iiFPwiiEl4RRHHtwVZT4ZVL6ZVg/6eUVzq5XPk3P5L58IYt3+vaQqt+fHBNpT8sh2rtkOr5JL49+ya+PtEtrn3ItVXZJpNJeCPRPnwS6c9kuhJYi32L5N5srzZXmyrNlebKs6Ks6Ks7Hxb5Hxb+ijPX5SKste+GuEUzXPh9FmD4RRwuX3wdnhv/k/4NPhf9hb88p/6F6VxPHkg19/cj1r9SStJfzwTXc8e5Ndrh9/6JtKXfDJdGiWyXREmiJNF5I7XbFG82VZsrzZVnRVnRVmynNlUUUQ0UQ+hs1x2UZ2VZ38F2OiS59/gd6nZ2dFydenkw9DF6JpkOtpNpePsh2vsiuvZeCe6J7fsTaMmt/ZPdE90S6Mk0ZJYnkM2VZsqzoqzoqzoqzoqzopzopih8UOmvYbDfI+NGivPXlcD5067NrRg9GkYegqteESa6eX7kOttvyyeqEXXIin0T2ya2S6MmuiXSvJLdE1sTyCfDKM6Kc6Ks6Ks6Ks6Ks2U5spzaKYpDopDptcM6r4ZTnfXQxate7O+q/8AyYeq+PJh6t+7MuyfS+eUS1XsJvsRXjyT22TXRNdE10S6US6UTWye2LAZnRVnRTnRVnRVnRTFlEaFEaD41fyOjVjp1GzS/uPi/C+Bn7rsFaD90Z/dGa068k93zyT1fHuJrRCa0XyIuya6JrZLb8kt0TXRNdCG+WcA6nwx+dFWdFOdlEWURZRFj4sfFjp0GzoOnQfGvBv1Q9QHr5Oep0YevXAi9OxFX5E1YirE3ZPdsRdk12TXRLdE11yYAANTXDKYsoiyiLKIsoix8WOm+hs6DJ0Gzpwx0ajFod9X7D1Psy9Rb1FVqJen2KrQTWgi7EXZPdk92T3ZNdeRIAAAbiuCiLKIsoix8WPixs6DpsYrNzoOnTo76h31A9Qy9DL06YqtOxb0F1oJrQRViasnuye7J7sS3yzgAAAAyL4HxY+LHxoPmxsWOnT7GTr9m50Gzoa9QFqHqGfUOPToVWnIp6C6sVViK0E1Yi7J7sS3ycAAAAADc3wPix0aDp0Gzp9jJ0GToMnUZOpr1A9Q56geoZenQt6fYt6inqLrQTWgirE1Ypvk4AAAAAAB1U0NnQdOg2dBk6G1obnQYtTS0O+r9nPU+znqmXr9i3qLegt6C60FVoJq+TAAAAAAAAAAaVtDJ0GToMWhudDS0+zq0O+oHqHPU+zL0MPQW9DD0FuzDfJwAAAAAAAAAAANybRtG0dADhkyxbMM4AAAAAAf/9k=;" parent="1" vertex="1">
          <mxGeometry x="1264" y="-395.5" width="397" height="397" as="geometry" />
        </mxCell>
        <mxCell id="a5dCra-difjXm44AHX22-112" value="&lt;b&gt;Name:&lt;/b&gt; ~~~~~~~~~~~~~~" style="text;html=1;strokeColor=none;fillColor=none;align=center;verticalAlign=middle;whiteSpace=wrap;rounded=0;fontSize=16;" parent="1" vertex="1">
          <mxGeometry x="1187" y="14.5" width="206" height="35" as="geometry" />
        </mxCell>
        <mxCell id="a5dCra-difjXm44AHX22-113" value="&lt;b&gt;Age&lt;/b&gt;: ~~~" style="text;html=1;strokeColor=none;fillColor=none;align=center;verticalAlign=middle;whiteSpace=wrap;rounded=0;fontSize=16;" parent="1" vertex="1">
          <mxGeometry x="1409" y="14.5" width="95" height="35" as="geometry" />
        </mxCell>
        <mxCell id="a5dCra-difjXm44AHX22-114" value="&lt;b&gt;Symptoms:&lt;/b&gt;" style="text;html=1;strokeColor=none;fillColor=none;align=center;verticalAlign=middle;whiteSpace=wrap;rounded=0;fontSize=16;" parent="1" vertex="1">
          <mxGeometry x="1194" y="60.5" width="86" height="30" as="geometry" />
        </mxCell>
        <mxCell id="a5dCra-difjXm44AHX22-115" value="~~~~~~~~~~~~~~~~~~~~~~~~~~~~~~~&lt;br&gt;~~~~~~~~~~~~~~~~~~~~~~~~~~~~~&lt;br&gt;~~~~~~~~~~~~~~~~~~~&lt;br&gt;~~~~~~~~~~~~~~~~~~~~~~~~~~&lt;br&gt;~~~~~~~~~~~~~~~~~~~~~~~~~~&lt;br&gt;~~~~~~~~~~~~~~~~~~~" style="text;html=1;strokeColor=none;fillColor=none;align=left;verticalAlign=middle;whiteSpace=wrap;rounded=0;fontSize=16;" parent="1" vertex="1">
          <mxGeometry x="1287" y="56.5" width="295" height="123" as="geometry" />
        </mxCell>
        <mxCell id="a5dCra-difjXm44AHX22-116" value="" style="rounded=0;whiteSpace=wrap;html=1;fontSize=16;fontColor=#9e9e9e;" parent="1" vertex="1">
          <mxGeometry x="1160" y="251.5" width="631" height="240.5" as="geometry" />
        </mxCell>
        <mxCell id="a5dCra-difjXm44AHX22-117" value="&lt;b&gt;Prescribe:&lt;/b&gt;" style="text;html=1;strokeColor=none;fillColor=none;align=center;verticalAlign=middle;whiteSpace=wrap;rounded=0;fontSize=16;" parent="1" vertex="1">
          <mxGeometry x="1160" y="219.5" width="86" height="32" as="geometry" />
        </mxCell>
        <mxCell id="a5dCra-difjXm44AHX22-119" value="&lt;h1&gt;&lt;font color=&quot;#8a8a8a&quot;&gt;Text field&lt;/font&gt;&lt;/h1&gt;" style="text;html=1;strokeColor=none;fillColor=none;spacing=5;spacingTop=-20;whiteSpace=wrap;overflow=hidden;rounded=0;fontSize=16;" parent="1" vertex="1">
          <mxGeometry x="1166" y="263.5" width="156" height="58" as="geometry" />
        </mxCell>
        <mxCell id="a5dCra-difjXm44AHX22-123" value="Submit" style="rounded=0;whiteSpace=wrap;html=1;fontSize=16;fillColor=#ffcc99;strokeColor=#36393d;fontColor=#000000;" parent="1" vertex="1">
          <mxGeometry x="1637" y="512" width="154" height="27" as="geometry" />
        </mxCell>
        <mxCell id="a5dCra-difjXm44AHX22-127" value="Pool" style="swimlane;html=1;childLayout=stackLayout;startSize=20;rounded=0;shadow=0;comic=0;labelBackgroundColor=none;strokeWidth=1;fontFamily=Verdana;fontSize=12;align=center;" parent="1" vertex="1">
          <mxGeometry x="-146" y="1182" width="771" height="1186" as="geometry" />
        </mxCell>
        <mxCell id="a5dCra-difjXm44AHX22-128" value="filed clinic" style="swimlane;html=1;startSize=20;fontSize=16;" parent="a5dCra-difjXm44AHX22-127" vertex="1">
          <mxGeometry y="20" width="271" height="1166" as="geometry" />
        </mxCell>
        <mxCell id="a5dCra-difjXm44AHX22-202" style="edgeStyle=none;curved=1;rounded=0;orthogonalLoop=1;jettySize=auto;html=1;fontSize=12;startSize=8;endSize=8;" parent="a5dCra-difjXm44AHX22-128" source="a5dCra-difjXm44AHX22-130" target="a5dCra-difjXm44AHX22-191" edge="1">
          <mxGeometry relative="1" as="geometry" />
        </mxCell>
        <mxCell id="a5dCra-difjXm44AHX22-130" value="Health worker takes and chest xray of the patient" style="rounded=1;whiteSpace=wrap;html=1;shadow=0;comic=0;labelBackgroundColor=none;strokeWidth=1;fontFamily=Verdana;fontSize=12;align=center;arcSize=50;" parent="a5dCra-difjXm44AHX22-128" vertex="1">
          <mxGeometry x="53.25" y="194" width="140.5" height="60" as="geometry" />
        </mxCell>
        <mxCell id="a5dCra-difjXm44AHX22-155" value="" style="ellipse;whiteSpace=wrap;html=1;rounded=0;shadow=0;comic=0;labelBackgroundColor=none;strokeWidth=1;fillColor=#000000;fontFamily=Verdana;fontSize=12;align=center;" parent="a5dCra-difjXm44AHX22-128" vertex="1">
          <mxGeometry x="103.5" y="38" width="40" height="40" as="geometry" />
        </mxCell>
        <mxCell id="a5dCra-difjXm44AHX22-190" style="edgeStyle=none;curved=1;rounded=0;orthogonalLoop=1;jettySize=auto;html=1;fontSize=12;startSize=8;endSize=8;" parent="a5dCra-difjXm44AHX22-128" source="a5dCra-difjXm44AHX22-156" target="a5dCra-difjXm44AHX22-130" edge="1">
          <mxGeometry relative="1" as="geometry" />
        </mxCell>
        <mxCell id="a5dCra-difjXm44AHX22-156" value="Patient visits the clinic" style="rounded=1;whiteSpace=wrap;html=1;shadow=0;comic=0;labelBackgroundColor=none;strokeWidth=1;fontFamily=Verdana;fontSize=12;align=center;arcSize=50;" parent="a5dCra-difjXm44AHX22-128" vertex="1">
          <mxGeometry x="75" y="112" width="97" height="40" as="geometry" />
        </mxCell>
        <mxCell id="a5dCra-difjXm44AHX22-154" style="edgeStyle=orthogonalEdgeStyle;rounded=0;html=1;labelBackgroundColor=none;startArrow=none;startFill=0;startSize=5;endArrow=classicThin;endFill=1;endSize=5;jettySize=auto;orthogonalLoop=1;strokeWidth=1;fontFamily=Verdana;fontSize=12" parent="a5dCra-difjXm44AHX22-128" source="a5dCra-difjXm44AHX22-155" target="a5dCra-difjXm44AHX22-156" edge="1">
          <mxGeometry relative="1" as="geometry" />
        </mxCell>
        <mxCell id="a5dCra-difjXm44AHX22-191" value="Health worker uploads the information with the image to the web app" style="rounded=1;whiteSpace=wrap;html=1;shadow=0;comic=0;labelBackgroundColor=none;strokeWidth=1;fontFamily=Verdana;fontSize=12;align=center;arcSize=50;" parent="a5dCra-difjXm44AHX22-128" vertex="1">
          <mxGeometry x="48.13" y="283" width="153.75" height="60" as="geometry" />
        </mxCell>
        <mxCell id="a5dCra-difjXm44AHX22-301" style="edgeStyle=none;curved=1;rounded=0;orthogonalLoop=1;jettySize=auto;html=1;fontSize=12;startSize=8;endSize=8;" parent="a5dCra-difjXm44AHX22-128" source="a5dCra-difjXm44AHX22-206" target="a5dCra-difjXm44AHX22-299" edge="1">
          <mxGeometry relative="1" as="geometry" />
        </mxCell>
        <mxCell id="a5dCra-difjXm44AHX22-206" value="Send patient to the &lt;b&gt;urgent queue&lt;/b&gt;" style="rounded=1;whiteSpace=wrap;html=1;shadow=0;comic=0;labelBackgroundColor=none;strokeWidth=1;fontFamily=Verdana;fontSize=12;align=center;arcSize=50;" parent="a5dCra-difjXm44AHX22-128" vertex="1">
          <mxGeometry x="130" y="904" width="129.88" height="49" as="geometry" />
        </mxCell>
        <mxCell id="a5dCra-difjXm44AHX22-300" style="edgeStyle=none;curved=1;rounded=0;orthogonalLoop=1;jettySize=auto;html=1;fontSize=12;startSize=8;endSize=8;" parent="a5dCra-difjXm44AHX22-128" source="a5dCra-difjXm44AHX22-217" target="a5dCra-difjXm44AHX22-299" edge="1">
          <mxGeometry relative="1" as="geometry" />
        </mxCell>
        <mxCell id="a5dCra-difjXm44AHX22-217" value="Send patient to &lt;b&gt;non-urgent&lt;/b&gt; &lt;b&gt;queue&lt;/b&gt;" style="rounded=1;whiteSpace=wrap;html=1;shadow=0;comic=0;labelBackgroundColor=none;strokeWidth=1;fontFamily=Verdana;fontSize=12;align=center;arcSize=50;" parent="a5dCra-difjXm44AHX22-128" vertex="1">
          <mxGeometry x="5.779999999999999" y="958" width="134.88" height="49" as="geometry" />
        </mxCell>
        <mxCell id="a5dCra-difjXm44AHX22-195" value="List updated" style="rounded=1;whiteSpace=wrap;html=1;shadow=0;comic=0;labelBackgroundColor=none;strokeWidth=1;fontFamily=Verdana;fontSize=12;align=center;arcSize=50;" parent="a5dCra-difjXm44AHX22-128" vertex="1">
          <mxGeometry x="73" y="454" width="112.88" height="35" as="geometry" />
        </mxCell>
        <mxCell id="a5dCra-difjXm44AHX22-244" style="edgeStyle=none;curved=1;rounded=0;orthogonalLoop=1;jettySize=auto;html=1;fontSize=12;startSize=8;endSize=8;" parent="a5dCra-difjXm44AHX22-128" source="a5dCra-difjXm44AHX22-229" edge="1">
          <mxGeometry relative="1" as="geometry">
            <mxPoint x="127" y="756" as="targetPoint" />
          </mxGeometry>
        </mxCell>
        <mxCell id="a5dCra-difjXm44AHX22-229" value="List updated" style="rounded=1;whiteSpace=wrap;html=1;shadow=0;comic=0;labelBackgroundColor=none;strokeWidth=1;fontFamily=Verdana;fontSize=12;align=center;arcSize=50;" parent="a5dCra-difjXm44AHX22-128" vertex="1">
          <mxGeometry x="70.55999999999999" y="659" width="112.88" height="35" as="geometry" />
        </mxCell>
        <mxCell id="a5dCra-difjXm44AHX22-295" style="edgeStyle=none;curved=1;rounded=0;orthogonalLoop=1;jettySize=auto;html=1;fontSize=12;startSize=8;endSize=8;" parent="a5dCra-difjXm44AHX22-128" source="a5dCra-difjXm44AHX22-245" target="a5dCra-difjXm44AHX22-294" edge="1">
          <mxGeometry relative="1" as="geometry" />
        </mxCell>
        <mxCell id="a5dCra-difjXm44AHX22-297" style="edgeStyle=none;curved=1;rounded=0;orthogonalLoop=1;jettySize=auto;html=1;fontSize=12;startSize=8;endSize=8;" parent="a5dCra-difjXm44AHX22-128" source="a5dCra-difjXm44AHX22-245" target="a5dCra-difjXm44AHX22-246" edge="1">
          <mxGeometry relative="1" as="geometry" />
        </mxCell>
        <mxCell id="a5dCra-difjXm44AHX22-245" value="HW sees change" style="rounded=1;whiteSpace=wrap;html=1;shadow=0;comic=0;labelBackgroundColor=none;strokeWidth=1;fontFamily=Verdana;fontSize=12;align=center;arcSize=50;" parent="a5dCra-difjXm44AHX22-128" vertex="1">
          <mxGeometry x="68.22" y="757" width="122.44" height="34" as="geometry" />
        </mxCell>
        <mxCell id="a5dCra-difjXm44AHX22-298" style="edgeStyle=none;curved=1;rounded=0;orthogonalLoop=1;jettySize=auto;html=1;fontSize=12;startSize=8;endSize=8;" parent="a5dCra-difjXm44AHX22-128" source="a5dCra-difjXm44AHX22-246" target="a5dCra-difjXm44AHX22-206" edge="1">
          <mxGeometry relative="1" as="geometry" />
        </mxCell>
        <mxCell id="a5dCra-difjXm44AHX22-246" value="HAS P" style="rounded=1;whiteSpace=wrap;html=1;shadow=0;comic=0;labelBackgroundColor=none;strokeWidth=1;fontFamily=Verdana;fontSize=12;align=center;arcSize=50;" parent="a5dCra-difjXm44AHX22-128" vertex="1">
          <mxGeometry x="166.97" y="828" width="55.94" height="34" as="geometry" />
        </mxCell>
        <mxCell id="a5dCra-difjXm44AHX22-296" style="edgeStyle=none;curved=1;rounded=0;orthogonalLoop=1;jettySize=auto;html=1;fontSize=12;startSize=8;endSize=8;" parent="a5dCra-difjXm44AHX22-128" source="a5dCra-difjXm44AHX22-294" target="a5dCra-difjXm44AHX22-217" edge="1">
          <mxGeometry relative="1" as="geometry" />
        </mxCell>
        <mxCell id="a5dCra-difjXm44AHX22-294" value="DOSNT HAVE P" style="rounded=1;whiteSpace=wrap;html=1;shadow=0;comic=0;labelBackgroundColor=none;strokeWidth=1;fontFamily=Verdana;fontSize=12;align=center;arcSize=50;" parent="a5dCra-difjXm44AHX22-128" vertex="1">
          <mxGeometry x="39" y="832" width="68.44" height="37" as="geometry" />
        </mxCell>
        <mxCell id="a5dCra-difjXm44AHX22-170" value="" style="shape=mxgraph.bpmn.shape;html=1;verticalLabelPosition=bottom;labelBackgroundColor=#ffffff;verticalAlign=top;perimeter=ellipsePerimeter;outline=end;symbol=terminate;rounded=0;shadow=0;comic=0;strokeWidth=1;fontFamily=Verdana;fontSize=12;align=center;" parent="a5dCra-difjXm44AHX22-128" vertex="1">
          <mxGeometry x="109.44000000000005" y="1093" width="40" height="40" as="geometry" />
        </mxCell>
        <mxCell id="a5dCra-difjXm44AHX22-302" style="edgeStyle=none;curved=1;rounded=0;orthogonalLoop=1;jettySize=auto;html=1;fontSize=12;startSize=8;endSize=8;" parent="a5dCra-difjXm44AHX22-128" source="a5dCra-difjXm44AHX22-299" target="a5dCra-difjXm44AHX22-170" edge="1">
          <mxGeometry relative="1" as="geometry" />
        </mxCell>
        <mxCell id="a5dCra-difjXm44AHX22-299" value="" style="rounded=0;whiteSpace=wrap;html=1;fontSize=16;" parent="a5dCra-difjXm44AHX22-128" vertex="1">
          <mxGeometry x="69.5" y="1045" width="115" height="15" as="geometry" />
        </mxCell>
        <mxCell id="a5dCra-difjXm44AHX22-137" value="web app" style="swimlane;html=1;startSize=20;fontSize=16;" parent="a5dCra-difjXm44AHX22-127" vertex="1">
          <mxGeometry x="271" y="20" width="250" height="1166" as="geometry" />
        </mxCell>
        <mxCell id="a5dCra-difjXm44AHX22-143" style="edgeStyle=orthogonalEdgeStyle;rounded=0;html=1;entryX=0.25;entryY=0;labelBackgroundColor=none;startArrow=none;startFill=0;startSize=5;endArrow=classicThin;endFill=1;endSize=5;jettySize=auto;orthogonalLoop=1;strokeWidth=1;fontFamily=Verdana;fontSize=12" parent="a5dCra-difjXm44AHX22-137" edge="1">
          <mxGeometry relative="1" as="geometry">
            <mxPoint x="63.0344827586207" y="373" as="sourcePoint" />
          </mxGeometry>
        </mxCell>
        <mxCell id="a5dCra-difjXm44AHX22-205" style="edgeStyle=none;curved=1;rounded=0;orthogonalLoop=1;jettySize=auto;html=1;fontSize=12;startSize=8;endSize=8;" parent="a5dCra-difjXm44AHX22-137" source="a5dCra-difjXm44AHX22-192" target="a5dCra-difjXm44AHX22-196" edge="1">
          <mxGeometry relative="1" as="geometry" />
        </mxCell>
        <mxCell id="a5dCra-difjXm44AHX22-192" value="App cheks for P" style="rounded=1;whiteSpace=wrap;html=1;shadow=0;comic=0;labelBackgroundColor=none;strokeWidth=1;fontFamily=Verdana;fontSize=12;align=center;arcSize=50;" parent="a5dCra-difjXm44AHX22-137" vertex="1">
          <mxGeometry x="59" y="289" width="112.88" height="35" as="geometry" />
        </mxCell>
        <mxCell id="a5dCra-difjXm44AHX22-198" style="edgeStyle=none;curved=1;rounded=0;orthogonalLoop=1;jettySize=auto;html=1;entryX=0.5;entryY=0;entryDx=0;entryDy=0;fontSize=12;startSize=8;endSize=8;" parent="a5dCra-difjXm44AHX22-137" source="a5dCra-difjXm44AHX22-196" target="a5dCra-difjXm44AHX22-197" edge="1">
          <mxGeometry relative="1" as="geometry" />
        </mxCell>
        <mxCell id="a5dCra-difjXm44AHX22-196" value="app adds the creates a record with the for the patient with the&lt;br&gt;&lt;b&gt;SUSPECTED P: TRUE&lt;/b&gt;&lt;br&gt;&lt;b&gt;ACTUAL P: NULL&lt;/b&gt;" style="rounded=1;whiteSpace=wrap;html=1;shadow=0;comic=0;labelBackgroundColor=none;strokeWidth=1;fontFamily=Verdana;fontSize=12;align=center;arcSize=50;" parent="a5dCra-difjXm44AHX22-137" vertex="1">
          <mxGeometry x="8" y="342" width="221" height="83" as="geometry" />
        </mxCell>
        <mxCell id="a5dCra-difjXm44AHX22-197" value="" style="rounded=0;whiteSpace=wrap;html=1;fontSize=16;" parent="a5dCra-difjXm44AHX22-137" vertex="1">
          <mxGeometry x="61" y="464" width="115" height="15" as="geometry" />
        </mxCell>
        <mxCell id="a5dCra-difjXm44AHX22-241" style="edgeStyle=none;curved=1;rounded=0;orthogonalLoop=1;jettySize=auto;html=1;fontSize=12;startSize=8;endSize=8;" parent="a5dCra-difjXm44AHX22-137" source="a5dCra-difjXm44AHX22-237" target="a5dCra-difjXm44AHX22-240" edge="1">
          <mxGeometry relative="1" as="geometry" />
        </mxCell>
        <mxCell id="a5dCra-difjXm44AHX22-237" value="Update patient record&lt;br&gt;SP:T&lt;br&gt;AP:T" style="rounded=1;whiteSpace=wrap;html=1;shadow=0;comic=0;labelBackgroundColor=none;strokeWidth=1;fontFamily=Verdana;fontSize=12;align=center;arcSize=50;" parent="a5dCra-difjXm44AHX22-137" vertex="1">
          <mxGeometry x="42.75" y="542" width="164.5" height="64" as="geometry" />
        </mxCell>
        <mxCell id="a5dCra-difjXm44AHX22-240" value="" style="rounded=0;whiteSpace=wrap;html=1;fontSize=16;" parent="a5dCra-difjXm44AHX22-137" vertex="1">
          <mxGeometry x="68.56" y="669" width="115" height="15" as="geometry" />
        </mxCell>
        <mxCell id="a5dCra-difjXm44AHX22-200" style="edgeStyle=none;curved=0;rounded=0;orthogonalLoop=1;jettySize=auto;html=1;fontSize=12;startSize=8;endSize=8;" parent="a5dCra-difjXm44AHX22-127" source="a5dCra-difjXm44AHX22-197" target="a5dCra-difjXm44AHX22-201" edge="1">
          <mxGeometry relative="1" as="geometry">
            <mxPoint x="550.1379310344828" y="491.5" as="targetPoint" />
          </mxGeometry>
        </mxCell>
        <mxCell id="a5dCra-difjXm44AHX22-204" style="edgeStyle=none;curved=1;rounded=0;orthogonalLoop=1;jettySize=auto;html=1;fontSize=12;startSize=8;endSize=8;" parent="a5dCra-difjXm44AHX22-127" source="a5dCra-difjXm44AHX22-191" target="a5dCra-difjXm44AHX22-192" edge="1">
          <mxGeometry relative="1" as="geometry" />
        </mxCell>
        <mxCell id="a5dCra-difjXm44AHX22-199" style="edgeStyle=none;curved=1;rounded=0;orthogonalLoop=1;jettySize=auto;html=1;fontSize=12;startSize=8;endSize=8;" parent="a5dCra-difjXm44AHX22-127" source="a5dCra-difjXm44AHX22-197" target="a5dCra-difjXm44AHX22-195" edge="1">
          <mxGeometry relative="1" as="geometry" />
        </mxCell>
        <mxCell id="a5dCra-difjXm44AHX22-239" style="edgeStyle=none;curved=1;rounded=0;orthogonalLoop=1;jettySize=auto;html=1;fontSize=12;startSize=8;endSize=8;" parent="a5dCra-difjXm44AHX22-127" source="a5dCra-difjXm44AHX22-218" target="a5dCra-difjXm44AHX22-237" edge="1">
          <mxGeometry relative="1" as="geometry" />
        </mxCell>
        <mxCell id="a5dCra-difjXm44AHX22-242" style="edgeStyle=none;curved=1;rounded=0;orthogonalLoop=1;jettySize=auto;html=1;fontSize=12;startSize=8;endSize=8;" parent="a5dCra-difjXm44AHX22-127" source="a5dCra-difjXm44AHX22-240" target="a5dCra-difjXm44AHX22-231" edge="1">
          <mxGeometry relative="1" as="geometry" />
        </mxCell>
        <mxCell id="a5dCra-difjXm44AHX22-243" style="edgeStyle=none;curved=1;rounded=0;orthogonalLoop=1;jettySize=auto;html=1;fontSize=12;startSize=8;endSize=8;" parent="a5dCra-difjXm44AHX22-127" source="a5dCra-difjXm44AHX22-240" target="a5dCra-difjXm44AHX22-229" edge="1">
          <mxGeometry relative="1" as="geometry" />
        </mxCell>
        <mxCell id="a5dCra-difjXm44AHX22-153" value="expert hospital" style="swimlane;html=1;startSize=20;fontSize=16;" parent="a5dCra-difjXm44AHX22-127" vertex="1">
          <mxGeometry x="521" y="20" width="250" height="1166" as="geometry" />
        </mxCell>
        <mxCell id="a5dCra-difjXm44AHX22-157" style="rounded=0;html=1;labelBackgroundColor=none;startArrow=none;startFill=0;startSize=5;endArrow=classicThin;endFill=1;endSize=5;jettySize=auto;orthogonalLoop=1;strokeWidth=1;fontFamily=Verdana;fontSize=12" parent="a5dCra-difjXm44AHX22-153" edge="1">
          <mxGeometry relative="1" as="geometry">
            <mxPoint x="83.75" y="238" as="sourcePoint" />
          </mxGeometry>
        </mxCell>
        <mxCell id="a5dCra-difjXm44AHX22-159" style="edgeStyle=none;rounded=0;html=1;labelBackgroundColor=none;startArrow=none;startFill=0;startSize=5;endArrow=classicThin;endFill=1;endSize=5;jettySize=auto;orthogonalLoop=1;strokeWidth=1;fontFamily=Verdana;fontSize=12" parent="a5dCra-difjXm44AHX22-153" edge="1">
          <mxGeometry relative="1" as="geometry">
            <mxPoint x="35" y="367.2222222222222" as="targetPoint" />
          </mxGeometry>
        </mxCell>
        <mxCell id="a5dCra-difjXm44AHX22-166" style="edgeStyle=none;rounded=0;html=1;labelBackgroundColor=none;startArrow=none;startFill=0;startSize=5;endArrow=classicThin;endFill=1;endSize=5;jettySize=auto;orthogonalLoop=1;strokeWidth=1;fontFamily=Verdana;fontSize=12" parent="a5dCra-difjXm44AHX22-153" edge="1">
          <mxGeometry relative="1" as="geometry">
            <mxPoint x="120" y="700" as="sourcePoint" />
          </mxGeometry>
        </mxCell>
        <mxCell id="a5dCra-difjXm44AHX22-171" style="edgeStyle=none;rounded=0;html=1;dashed=1;labelBackgroundColor=none;startArrow=none;startFill=0;startSize=5;endArrow=oval;endFill=0;endSize=5;jettySize=auto;orthogonalLoop=1;strokeWidth=1;fontFamily=Verdana;fontSize=12" parent="a5dCra-difjXm44AHX22-153" edge="1">
          <mxGeometry relative="1" as="geometry">
            <mxPoint x="122.9545454545455" y="238" as="targetPoint" />
          </mxGeometry>
        </mxCell>
        <mxCell id="a5dCra-difjXm44AHX22-172" style="edgeStyle=none;rounded=0;html=1;dashed=1;labelBackgroundColor=none;startArrow=none;startFill=0;startSize=5;endArrow=oval;endFill=0;endSize=5;jettySize=auto;orthogonalLoop=1;strokeWidth=1;fontFamily=Verdana;fontSize=12" parent="a5dCra-difjXm44AHX22-153" edge="1">
          <mxGeometry relative="1" as="geometry">
            <mxPoint x="85" y="281.81355932203405" as="targetPoint" />
          </mxGeometry>
        </mxCell>
        <mxCell id="a5dCra-difjXm44AHX22-174" style="edgeStyle=none;rounded=0;html=1;dashed=1;labelBackgroundColor=none;startArrow=none;startFill=0;startSize=5;endArrow=oval;endFill=0;endSize=5;jettySize=auto;orthogonalLoop=1;strokeWidth=1;fontFamily=Verdana;fontSize=12" parent="a5dCra-difjXm44AHX22-153" edge="1">
          <mxGeometry relative="1" as="geometry">
            <mxPoint x="154.74358974358984" y="415" as="sourcePoint" />
          </mxGeometry>
        </mxCell>
        <mxCell id="a5dCra-difjXm44AHX22-175" style="edgeStyle=none;rounded=0;html=1;dashed=1;labelBackgroundColor=none;startArrow=none;startFill=0;startSize=5;endArrow=oval;endFill=0;endSize=5;jettySize=auto;orthogonalLoop=1;strokeWidth=1;fontFamily=Verdana;fontSize=12" parent="a5dCra-difjXm44AHX22-153" edge="1">
          <mxGeometry relative="1" as="geometry">
            <mxPoint x="35" y="389.53846153846143" as="targetPoint" />
          </mxGeometry>
        </mxCell>
        <mxCell id="a5dCra-difjXm44AHX22-177" style="edgeStyle=none;rounded=0;html=1;dashed=1;labelBackgroundColor=none;startArrow=none;startFill=0;startSize=5;endArrow=oval;endFill=0;endSize=5;jettySize=auto;orthogonalLoop=1;strokeWidth=1;fontFamily=Verdana;fontSize=12" parent="a5dCra-difjXm44AHX22-153" edge="1">
          <mxGeometry relative="1" as="geometry">
            <mxPoint x="156.96428571428578" y="640" as="sourcePoint" />
          </mxGeometry>
        </mxCell>
        <mxCell id="a5dCra-difjXm44AHX22-180" style="edgeStyle=none;rounded=0;html=1;dashed=1;labelBackgroundColor=none;startArrow=none;startFill=0;startSize=5;endArrow=oval;endFill=0;endSize=5;jettySize=auto;orthogonalLoop=1;strokeWidth=1;fontFamily=Verdana;fontSize=12" parent="a5dCra-difjXm44AHX22-153" edge="1">
          <mxGeometry relative="1" as="geometry">
            <mxPoint x="169.5999999999999" y="785" as="sourcePoint" />
          </mxGeometry>
        </mxCell>
        <mxCell id="a5dCra-difjXm44AHX22-219" style="edgeStyle=none;curved=1;rounded=0;orthogonalLoop=1;jettySize=auto;html=1;fontSize=12;startSize=8;endSize=8;" parent="a5dCra-difjXm44AHX22-153" source="a5dCra-difjXm44AHX22-201" target="a5dCra-difjXm44AHX22-218" edge="1">
          <mxGeometry relative="1" as="geometry" />
        </mxCell>
        <mxCell id="a5dCra-difjXm44AHX22-201" value="List updated" style="rounded=1;whiteSpace=wrap;html=1;shadow=0;comic=0;labelBackgroundColor=none;strokeWidth=1;fontFamily=Verdana;fontSize=12;align=center;arcSize=50;" parent="a5dCra-difjXm44AHX22-153" vertex="1">
          <mxGeometry x="64" y="454" width="112.88" height="35" as="geometry" />
        </mxCell>
        <mxCell id="a5dCra-difjXm44AHX22-218" value="Clinicinas double check P, and submit a prescribtion" style="rounded=1;whiteSpace=wrap;html=1;shadow=0;comic=0;labelBackgroundColor=none;strokeWidth=1;fontFamily=Verdana;fontSize=12;align=center;arcSize=50;" parent="a5dCra-difjXm44AHX22-153" vertex="1">
          <mxGeometry x="54.44" y="537" width="132" height="69" as="geometry" />
        </mxCell>
        <mxCell id="a5dCra-difjXm44AHX22-231" value="List updated" style="rounded=1;whiteSpace=wrap;html=1;shadow=0;comic=0;labelBackgroundColor=none;strokeWidth=1;fontFamily=Verdana;fontSize=12;align=center;arcSize=50;" parent="a5dCra-difjXm44AHX22-153" vertex="1">
          <mxGeometry x="73.56" y="659" width="112.88" height="35" as="geometry" />
        </mxCell>
        <mxCell id="uESaPEaGpG72Nl8H6VJj-1" value="Visit URL: somethingsomething.com" style="whiteSpace=wrap;html=1;fontSize=16;" parent="1" vertex="1">
          <mxGeometry x="562" y="-1001" width="286" height="49" as="geometry" />
        </mxCell>
        <mxCell id="uESaPEaGpG72Nl8H6VJj-4" value="Health worker view&amp;nbsp;" style="rounded=0;whiteSpace=wrap;html=1;fontSize=16;fillColor=#ffcc99;strokeColor=#36393d;fontColor=#000000;" parent="1" vertex="1">
          <mxGeometry x="517" y="-743" width="183" height="28" as="geometry" />
        </mxCell>
        <mxCell id="uESaPEaGpG72Nl8H6VJj-5" value="Hospital view" style="rounded=0;whiteSpace=wrap;html=1;fontSize=16;fillColor=#ffcc99;strokeColor=#36393d;fontColor=#000000;" parent="1" vertex="1">
          <mxGeometry x="518" y="-704" width="182" height="28" as="geometry" />
        </mxCell>
        <mxCell id="uESaPEaGpG72Nl8H6VJj-69" value="Unchecked first" style="shape=note;strokeWidth=2;fontSize=14;size=20;whiteSpace=wrap;html=1;fillColor=#fff2cc;strokeColor=#d6b656;fontColor=#666600;" parent="1" vertex="1">
          <mxGeometry x="789" y="-355" width="103" height="49" as="geometry" />
        </mxCell>
        <mxCell id="2gghzipWFYcWRQEd3Zvu-1" value="NOTE: P stands for pnumonia" style="shape=note;strokeWidth=2;fontSize=14;size=20;whiteSpace=wrap;html=1;fillColor=#fff2cc;strokeColor=#d6b656;fontColor=#666600;" parent="1" vertex="1">
          <mxGeometry x="-314" y="1185" width="156" height="85" as="geometry" />
        </mxCell>
        <mxCell id="2gghzipWFYcWRQEd3Zvu-2" value="img:" style="text;html=1;strokeColor=none;fillColor=none;align=center;verticalAlign=middle;whiteSpace=wrap;rounded=0;fontSize=16;" parent="1" vertex="1">
          <mxGeometry x="42" y="-199.5" width="48" height="27" as="geometry" />
        </mxCell>
        <mxCell id="2gghzipWFYcWRQEd3Zvu-7" value="" style="group" parent="1" vertex="1" connectable="0">
          <mxGeometry x="94" y="-202.5" width="190" height="30" as="geometry" />
        </mxCell>
        <mxCell id="2gghzipWFYcWRQEd3Zvu-5" value="Choose File" style="fillColor=#FEFEFE;strokeColor=#AAAAAA;fontSize=14;gradientColor=#F0F0F0;" parent="2gghzipWFYcWRQEd3Zvu-7" vertex="1">
          <mxGeometry width="90" height="30" as="geometry" />
        </mxCell>
        <mxCell id="2gghzipWFYcWRQEd3Zvu-6" value="No file chosen" style="fillColor=none;strokeColor=none;align=left;fontSize=14;spacing=5;" parent="2gghzipWFYcWRQEd3Zvu-7" vertex="1">
          <mxGeometry x="90" width="100" height="30" as="geometry" />
        </mxCell>
        <mxCell id="Ft0pRcpO4Pf6lHiSCJ3b-27" value="&lt;h1&gt;Web&amp;nbsp; app database structure (just 1 table) example:&lt;/h1&gt;&lt;div&gt;&lt;br&gt;&lt;/div&gt;&lt;div&gt;&lt;br&gt;&lt;/div&gt;&lt;div&gt;&lt;br&gt;&lt;/div&gt;" style="text;html=1;strokeColor=none;fillColor=none;spacing=5;spacingTop=-20;whiteSpace=wrap;overflow=hidden;rounded=0;fontSize=16;align=center;" vertex="1" parent="1">
          <mxGeometry x="2938" y="-461.5" width="510" height="106.5" as="geometry" />
        </mxCell>
        <mxCell id="Ft0pRcpO4Pf6lHiSCJ3b-72" value="&lt;h1&gt;&lt;font style=&quot;font-size: 73px;&quot;&gt;Data structure&lt;/font&gt;&lt;/h1&gt;" style="text;html=1;strokeColor=none;fillColor=none;spacing=5;spacingTop=-20;whiteSpace=wrap;overflow=hidden;rounded=0;fontSize=16;" vertex="1" parent="1">
          <mxGeometry x="2919" y="-637" width="576" height="143" as="geometry" />
        </mxCell>
        <mxCell id="Ft0pRcpO4Pf6lHiSCJ3b-73" value="&lt;h1&gt;&lt;font style=&quot;font-size: 73px;&quot;&gt;UI wireframe&lt;/font&gt;&lt;/h1&gt;&lt;div&gt;&lt;font style=&quot;font-size: 73px;&quot;&gt;&lt;br&gt;&lt;/font&gt;&lt;/div&gt;" style="text;html=1;strokeColor=none;fillColor=none;spacing=5;spacingTop=-20;whiteSpace=wrap;overflow=hidden;rounded=0;fontSize=16;" vertex="1" parent="1">
          <mxGeometry x="486.5" y="-1205" width="576" height="143" as="geometry" />
        </mxCell>
        <mxCell id="Ft0pRcpO4Pf6lHiSCJ3b-74" value="&lt;h1&gt;&lt;span style=&quot;font-size: 73px;&quot;&gt;UML diagram&lt;/span&gt;&lt;/h1&gt;" style="text;html=1;strokeColor=none;fillColor=none;spacing=5;spacingTop=-20;whiteSpace=wrap;overflow=hidden;rounded=0;fontSize=16;" vertex="1" parent="1">
          <mxGeometry x="-13" y="987" width="484" height="115" as="geometry" />
        </mxCell>
        <mxCell id="Ft0pRcpO4Pf6lHiSCJ3b-75" value="" style="shape=image;verticalLabelPosition=bottom;labelBackgroundColor=default;verticalAlign=top;aspect=fixed;imageAspect=0;image=data:image/png,iVBORw0KGgoAAAANSUhEUgAABhkAAACuCAYAAAArk2ztAAAAAXNSR0IArs4c6QAAAARnQU1BAACxjwv8YQUAAAAJcEhZcwAADsMAAA7DAcdvqGQAAGg6SURBVHhe7d29rttGuzf8a72HcJ9B8EjegJEuSCMVSREgkNz4bpxydVLcPFKKVSRw6Tu7cBGtXeSx1LldzXZjCQFcOMVSE6QzDGxLGz6DGz4Dvdd8kBySQ3KGHOrz/wMEL8kUNTOcGQ5nyJmrz58/78jw888/03/+53/qd/tzqN+FcE75GCL/Adidc9lAuYd9QV47HKQ9AJw61GMA5wllGwBOVVH99f/pfwEAAAAAAAAAAAAAALxgkAEAAAAAAAAAAAAAAGq5evr0aWq6JAAAAAAAAAAAAAAAABfWNRn+9a9/6XcAAAAAAAAAAAAAAHDp/vGPf9Bul39mAdMlAQAAAAAAAAAAAABALRhkAAAAAAAAAAAAAACAWjDIAAAAAAAAAAAAAAAAtWCQAQAAAAAAAAAAAAAAasEgAwAAAAAAAAAAAAAA1IJBBgAAAAAAAAAAAAAAqAWDDAAAAAAAAAAAAAAAUAsGGQAAAAAAAAAAAAAAoBYMMgAAAAAAAAAAAAAAQC0YZAAAAAAAAAAAAAAAgFowyAAAAAAAAAAAAAAAALVgkAEAAAAAAAAAAAAAAGrBIAMAAAAAAAAAAAAAANSCQQYAAAAAAAAAAAAAAKgFgwwAAAAAAAAAAAAAAFALBhkAAAAAAAAAAAAAAKAWDDIAAAAAAAAAAAAAAEAtGGQAAAAAANiHTy/p+3/8g/4hXz/RW/0xAAAAAADAKcMgAwAAAAAAZHyity9/opef9FsAAAAAAIACGGQAAAAAAIDYp7cv6afvv6Inv3zQnwAAAAAAABTDIAMAAAAAAGhv6b+e/EKv/tJvAQAAAAAAKmCQAQAAAAAAAAAAAAAAasEgAwAAAABAXZ/e0sufvjcWdObX99/TTy/fUvVyBmrdg++/N7/7E718W/xNNZXR98n2/+Df/uklFX7FFr6C77z9SfzfE3ql3xP9Rb98pb7zfd3FGVKLXfPrJ2O567c/JZ9zmKKf+PQyiZ/43bcc/ng7Th8z3J94H6n0k9tw+qc2Kl9w2/y9VPgAAAAAAMAJBhkAAAAAAOoQHdxfPaFfXv1FqdmF/vqLXv3yhL76/mXJQMMreiHXPXglNk/89Yp+efKVtVNfdIZ/JacySn2Bv/ILPflKdKzrjyJF4TO+0/rCzl/8SC9//Vq/Ya/e6E7+T/TyRTKc8fWvL+nHL/Qbw1+/cBoZczd9/c9H9J3eTgyKfPUkk36CSH9Ow3jA4Ivv6Z9xEF7Rm1Q6faI//jvZwfWj7/RfAAAAAADgCoMMAAAAAAC+xN3xooNbvvmaru/+pn//+9/8+pviPvW/fqEfS3rx//rra/rV+N6d0Rn/1y//lb7j/u1P9NUvUWf4Nd39Lb7zb/r77lf+dUF0rJt36atO/Ch8v+rt07/zF/3yYzIQ8t1v4v/veO+R5Ht/2EYAHH3Bv5FE7RW94DT59PJHiqPz9a/0smz/13f0twy7CIceBOD04ORX+PvR//99l4Q+GdD4gn68ST5/lRpl+F/6n3iM4ZowxgAAAAAA4A+DDAAAAAAAnj798d+6A1/0cb+k36Lb60WH9suo498yWGC4vvuDfjS+992PN0YH/wfaxuMT6bv+r+9+i+/m/+I780kB1YGvmJ3n7H+jz8XvGJ3+f/1C/1UUwGDSnfzi6YRkwORr+vXlj7xFkWu6++273P+/fROPMKS+/8V3j+xpaH4eDz6wT1veSrt+RBhjAAAAAADwh0EGAAAAAAAv6Sl2HnYyXeBf/Eh/6Dvr//3v3wo6rr+m//g/+s9K5Xfbf9F5qP8i+uu//9BPJvwf+o/46YG/5BRMYs2B78WaDy//l75/GYXv3/TbPnrWv/uNzIcMIkXTJMW+/g+OSZ566kK8/uDvf6JPb99yvH6i71NrSpi+o0fJKEMyZdL//k8yWOR+QAAAAAAAwIBBBgAAAAAAL2anv89ggekhZccmCpl329MrehIvYqxf8bxBpvTTA5G/xJoPYr0IsaBzdoHkln33mzkVE6uaJqnCJzmoINLgK/rqyROOVzQ9lN13yShDPGWS+UTEP7+vHxYAAAAAgEuGQQYAAAAAgNr+ov/5X/3nMfjrfygOzne/0b//vqNfr+NHGtL0Asm5BaPb8vZN+ikDl6maHnasUynJRZ+NQYWvv76mX+/E2g2ZgQzTd/83mSbq1Qt6+ekTbaPRm6//SRhjAAAAAACoB4MMAAAAAABezKmI9u2a7uKpmGyvzPRMX3xHP/72h/q/v+/o7tdruv46HfhXL5LFn9vzln6yPHGRXqza0aeXlCxRoRan/uOP3+jH7/JrN6R9Qd//M4r7X/Tff/wRP5Hy9T+/r/guAAAAAAAUwSADAAAAAIAXs7M6mXon8ZZ+iqcz+p7itZjr+uJ7Sn7OWE9AE3f1R1MnfR/92Nuf4s/+8b0eRPjiO/rux9/otz/+oH/bFkho0dufjLUSvr4mI/XoSaNHKTLTTqWmlsr74vt/xr/91y+/xGHKrasBAAAAAADOMMgAAAAAAODJ7KymV0+MtQ0+0dufXhgd6iGm4UmvryDv/tc/9+mteVf/Nd1EaxyYUwP99Qv9+PKt8bQChzFeiyB7F396wehoKqjkuzW8/YmShxi+pl9f/kZ/mIMcMv30395e0YtoYOXTW/rpx19K12UQi3Lnl6rIL6YNAAAAAADuMMgAAAAAAODrix9lR3nUHy/WNlBPDnxFT15F3dzXdPfHj2Gm4fnuN7qL11Z4RU/Ews38e189iTrVv6brO3OqpC/ox5fJ+gR/icWeoycbZBj1f+QWX/6COg/1n+zVE/07tUcBPtHLZBSEf+4lyZ8zB0GY17RJmYGCv37Raf/VE4qTXrKvl2EuAC1dP0pPMQUAAAAAAF4wyAAAAAAAUMd3v9EfemFlo7+c6Ouv6fpXsQhxZn2Ehr777Q/6++7X3JoKYtHju7//oN+yP/bFd/Tbv/+W6zBkvsLvxaDE3/S3ZRDku9/+zi0Wnfm6s08vf6Rfoo7/1ICGGAT51div37RJ3/32b/pbxEu/F1Q6/J2aCio/lRX77lE8+CJc4zEGAAAAAIBGrj5//rzTf0s///wz/etf/9LvAAAAAAAAzsknevn9V3rwQywc/Yd6ugIAAAAAAEqJJ4h3u9RwgoQnGQAAAAAA4HJ8+oP+O366IsSaGQAAAAAAlw2DDAAAAAAAcCE+0Utjcej0otcAAAAAAFAHBhkAAAAAAKDc25/0otF+r9rrRYf26SV9L8MUTZMkXNMN5kkCAAAAAGgMgwwAAAAAAHDmOvRQ/yV8ff0r3f0ddmFuAAAAAIBLhYWfAQAAAAAAAAAAAACglHhaGQs/AwAAAAAAAAAAAABAMBhkAAAAAAAAAAAAAACAWjDIAAAAAAAAAAAAAAAAtWCQAQAAAAAAAAAAAAAAasEgAwAAAAAAAAAAAAAA1IJBBgAAAAAAAAAAAAAAqAWDDAAAAAAAAAAAAAAAUAsGGQAAAAAAAAAAAAAAoBYMMgAAAAAAAAAAAAAAQC0YZAAAAAAAAAAAAAAAgFowyAAAAAAAAAAAAAAAALVcPX36dKf/jv3www/6LwAAAAAAAAAAAAAAuHTffvstvXv3Tr9LXH3+/Dk1yPDzzz/T77//rt/tz59//knffPONfgen6JSPIfIfgN05lw2Ue9gX5LXDQdoDwKlDPQZwnlC2AeBUXV1d0W6Xe2YB0yUBAAAAAAAAAAAAAEA9GGQAAAAAAAAAAAAAAIBaPAcZtnTbv5KPRVz1b/ldtdVYb381ppX+LJwt779Pfbl/9eqPfX/FFif/eAJAm0RZv22hDoGwLqfuDHNuC5Gvs/s41WPQLC3abWvs05a2qzH1o2OoX/0+x8tyMLe3fb1Nn24PeLAPkf77/c1jLFdlYcqXp2PJK3AIx5N/j+fc6aO93zv+c9c+0/py2pCnCccnz+88DHDc7Pn5UOep4z8/QpHTfpJh9YKGizWt9VvpYVf/AQBnYbuicb/LZf2D/gDgDITI1+dSNlDGNZUO3eGC1qmGDfH7BQ27V9RH7zBUQXmCc7bv/H3J5Ql1CUA9KDsAcME8Bxk6NLnfycUddvcTfndY24/v9V89mm1UuO4nhw4VAIS0ejGkRabDDY7VcZ0jjlmIfG3fx+kdA5RxQdw9VJ0O62mXvB/YhDNlL+soT5B3PufmfefvSy5PqEsgDW18Vyg7cJpQxiGMgNMliUfCjKmL+mO6tT3bH4h4fKY7jWrvNU274nfVI+DFj9asaKzD1/bdgOnH0lXaqPf8Emlj+fnt6pbGUfrql5giIb1tEoer8Up+J5lWoU9jnebb23H6WFijmwkXf19MN9VmyrjFMWJPt+Lju//4HDOZB1JpLdLj1phywyjPtl6r1Tj+rvrvMHkvdfzknR7pY2xWG2Lb4UK/oQUNo+/pTwSVp8x9cFhus8c9XLmpTtdLZjtHtFhnVdYJIajfdD23udRx1fm6ui4r3seej4ElbD6q0sIlPYsZ8Rb7TH3HLR51zuV1bG+vKW7S9EY0W25UI1+8Nkua9fT/scXzbPsr4ho+v2OYm75J1LFOFV7z9FfUtq5l0FezPCbY072sXlK/aX7Hdt7i7cz8lwqnSM98Wa+uWyJVeSVkneEmlV4VbQOhXtl0y3fFxy5Jl+Q6Imxa1coblfEvvn5rnv+LqDC5l9vqY1Odv92Ob6Sqbgv7e77p4cf3ODaJu1/5UNrLZ2mpsKEe0d8X255ePVJ+/tMbOR4LQaZdKoxi2/z1W538bSorO3BaGtUne8yzEZf2enkYi8t4LJMOxeFxj2e0bVvnRziAz58/78zX06dP+Zq2yGbHF7o7/tqOejN+FzE+L3yNdku9tc27d+/0X26WI9tv9HYzDlTyf9nfXO5Getue2FCyxakonu42s54OQ9FLhTW2HFm2iV7mtkkcil4967EoTovcq1d+rIpUHkPnOApFeapnxM8MZ7P4+Oa/Y1ee/5L0SLbLp1G+HIXJe/aya76SvGDf1hZ+yytVdsOE3TVdz4lf2bDVnaHqLN86oVp13Ip+03wZv+lYx5Xna7e6rHgfbR4Dt7D5KE0Lj3NGsp8oHOaxy55f3OPhfS4vUJ7XzLAWpaPYhvP6iI+w8XvV4cvuz+8Y2o+PeiXtqPbSP72foldRmimlae+cx4xwpM4tReErrpfcz1sl28rt8mEqK09+eSVUneGuLK+pVzof+ZdN93yXz8+RZB9J/g+XVkHyRvxyyL9e7XIfvuXW7diU5W/XfUTK8lt0bMP9nm965IWpx5SmcU/+LxtmW/lgjetZd2VxU690eqAeOd56pDBs8W+7H4vyeDY5bvk0KSs7Nn7XWbBPweqTlvOsUBZWsz4uD6O9jFenQ3FZyb1aOD/C4YjjYxNmkME8uYgLYPnhhj82M3F55qhTwSaFJF3Am54cCuPpIVWARWHSOzE/t4ZhZPzeZrbr5bZNF9ro803mBD/SP2j/vUwaRR9bf8+dcydKZRxZYZ7Sn8lXcnybxue8TvBGHonTjpPDSNM4PYw04k0N6X3kPuNXtI/6eU+8jLKROeaRwvJshN0sp/bfDRF2j3Q9I35lw1Z3hsk3vnWCi8q4Ff5mEsbkN/3quKJ87VOX2ffR3jHwCZuPynh4p6fxXX4Z1YnkEw8zLarP5cXK81q6bvGRDt+sMnxexzBVt+n8vzHzUnK82kp/MwzVZdCuOO198pitXDHfesnYd/V5K/156vjKkSZ7mNLHIuGXVwLV2x5yaRaFL5PGkXR8jO0LwuKT74rS0EyX4GnVKG9Uxd+WV3zyvyfPchvi2PjswwyfX92WqPt7h63HWOi4688UW/nwCZ+9TvORhE28kmODesS+vV/891uPpMOWPf/5HAsjbePyx5umykL0qe9xs+fZ4n3k+V1nwT4lx1EfS32A3eqT/eVZ3rHxeXm9Xh7Gqvyc+U5BOrjHk2X2of7H7/wIhyOOj02QQYbiitSeuW3qVLBJITnuQQajzIn/SE7+qf9IbLhSWM5G6TsW4m2NNE2FreDzioorVchZEm7/wuxzDMvj6HYMk/9rHp+zOsGbeUw2GNNpkmbkdTM/GhV+8nGIvCd2rbflV7YI2I57UV4oziO2/wsQdq90PR9+ZcNWd4bON9njbezHkhfKVMWtyW/Wq+OS/brUZfZ9tHUM/MLmozidEz7pOYr/zofVNx7JZ/7nclNpXivI8y4Kw2eNp1/ci46L2LY3EhcZyT7aSv/ivJHsJ/9/aa51WHkes7cLfcNXvL39/4qPr+AXprp5pX6d4ScJt1vboDA+1rJpi6NSN9+FTqvi37T/n1/87XnFVFXH+nBJv+T/QhybEPtQ25bVbaF/z9xP/v/SwtRjIeLuFp9sukTq1LM+krChHkn/pv3//OK/33qkMGySx7Ew4+Jw/eZ33HzbBnl+11mwT8lxbFifSPvPs2K/2Xq9PIxV+Tn/ZFL+tz3iyYrCbu4n/39wLMTxsfFck8FmS/H6y6PHNNB/KgN6zLnjsvXoYVf/KXQe0Jf6z7Qt3ep5y7rdIQ2nC1pXLRj05QP7gixFn0e2Hyk6ZGIRyWSuNHOdi/f0MfhUaK5xNPJU7yGZyWfNUweLz5HqPKInfGaS1gsadnWaWOfj7NCjaOPF63i+yNVrPZlkb0Y36UKt1M17KSN6nNl392EU8KrjVZZHKvZTN+xe6QpWtfONZ50QRJ1zW4163LSPuqzuMThIPVsnPRe0iOfC7dGTR5lY1Y6H67n8UDLhM6w/bNQfXnEvLnOdyT3dzyc06NhyTMj0r1MGfTUps771Utn2Vee/4uPrzyGvmGrX23X5tg0cyua+6q/aaRUwb3jVTQ3PWVae5TbEsdlL3WY42XosQNxraSOfVUE9ctr1iMlyzvI5Frh+g8Ya1idCa3m2br1uCWOlL+lBZle5dDi68yMcQoBBhg19CHoiaZGR6Y8Ln5z7XZoudEKKRR9nS9psllyltWDzgfZ/yHziaOQpl4vYg8TnmHVo8orTNarzI9ziW0yH1JUL/ejPWOfREz7NCAt6LT9fUTzG8ORRdfoH1HkQNWnXZOvrSJTnEff9+PBLVwjJs04IwvfcFqAeP+a6bO9hC5CeHOLpdWbhsmNMY+Ni3trJG0rduNcuc03Tv+32ZdM85lsvHeK8dR4ap02oct/adcQh8kaIOtbGs9yGODb7rtvOoR6rXa+XsJaPtvKZP9Qjp1SPVPA6FoGu3462HwkOwbs87SPPtlGvmyyDlzlHdX6EQwkwyNClZADrI59qwNv2Dd1F5+bZhnb3c5pMBtTKzSRC96HuVCbxBKN4xsXyuqdJyN/3iqNnnjpEfI5dZ0Dze443N/JmsxH1UiepNU2fGx0/xmj54vWKtrfPSY0xWO5Cbdk2GYqvGF0vzyPu+/Hkk64Q0CHOM56/GaIeP+a6bN9ha5KevRktZzq06ym9MBviR5nGRl4znihLExfyfeqPb2lVtwDUjbtvmQuW/i2X+8Zl1jd85du3dt46A43T5pjrVukAeaO1aw/PchHi2OyrboucQz3WRlhsWstn/lCPnFI9UsH3WOD6DQLzLk/7yLNt1+vrD1Q5nnJM50c4mACDDB1KBvKyGS+5I3qfCh9fCnUHQmhGuL40n0EyRsx7wVoDzLhrUnQq74VXHD3z1CHicyr4BDWZzOlenKR2G+JzlJJKV3PKpOd0HbcWn1C7YwzRkxOJTXILTu5xvLSyPOKzn5qc0hXCOcR5xvM3Q9Tjx1yX7TtstdNzRMv7CQ0mz+K76BapQdVjTGOjDuZ6cdgf0605krBdqTsF12taL6Y0zD4d4Mor7iX5fzWmfjaMsZDp33K5b1xmfcNXtv0ezlsno0nboIBnud//dcQB8kaIc5aVZ7kIUSfvpW4znGw9FiDuzKt8tJbPqqAeOe16pELdesPh+u3k+pFgDwLUJ63l2TD1uhuHdDim8yMcTIBBBqJBPGEWXxyPo3nCtpyvh/zJIa3p7o0uVOIi/fmR5lRjxC++GBfhvZ7GJ7OwUygYc5wtntM4qnj4N8fRvGn9mp0YRTzj6JenDhCfY8YnlGjuu745b992Qx+SFh+ZTb5kyqR1PI/mPqZKWgzH8V25Ww73MDq4xrx8RY29wc1Mh1l0yiXHd3vbj/fTm91k5vdroEa6QjiHOM94/aZnHWfP1351WeGFUCvaq2et8Wh8XhzQfKkDnLqb/jjPF53JK4pu/hfzr06Hxjym3SHF05iy0bNJzbrZL+5m/n9u5H/RllrrMPLHBcKkf6vlPkDbyzd8+zhv7bdeaIdL28BP3XK/v+uIvbdpWrz28CsXfsfGnr/bq9tC/96h67HmcTc5lI8W81kV1CNJWE6xHinncSxqX7/VP27VZQdOTfP6pL0861OvN1WdDkd0foTD+fz58858PX36dFfMvuK4kKwMXvQqXxW8zsr6yQrlmZXOzRXZC169+Au2OBXH01Vh2MyV0kdRihi/V/SKt7V9Xyj43EiLJM6CuWJ79pVfOd5F+TH0iaNQtH1v14s/N/NUs/jUyX/HbDmK8p/tZUuPbHrbymuYvOddVyxHhf+flDPLK1V2Q4XdN11Pn1/ZsNWdYdI+te/Uq6hOqOYSN/f86lnHFeZrI11yr0wes+6jzWPgETYfVfEoehlhTo6TmQdsaSG4x8PvXF7MrRzxPivi3Mv8ln/4/I5haf7fQ/oL3ueMjOK098ljRXEp2kdxveR+3jK3zadLYZgK6ha/vOKQf8zPC+sMd77HudW8b8Sn6JXEM1xahckbtt+15RWf/O/P73h6HJsQ507mWrft5ffkK52/s8LUY0rjuHuVD5/wFdRpHlCPmHGyvE6oHikOW8T9WHhdv9XN32baFtYbeX7XWbBP4eqTSEt5lrnW6+VhtOdn//OXezwF//3DsRDHxybIkwzCYL6Rc/Bypazw1dVoyZ9xDtu7zoTuN7PUYim90YyWbS9CVFuHJvfi8adUgGnG6ccVgXpfOE9zXQOaizne+DeNX9Xp1MZ8kr5xVNtzBavfiyylwvYseqwqZd/xOW6D+T1tuPCl5+8TaTgqSA9O72dG6ah9l48PDot87M84xvJ4zdO/PbhJ5QN5gPXwd2ci4inKuvn/XPfIeUHr3u1bzD9dIRzfOiEM93ObZx1XmK896rKSstGOlupZazx8zxk2vI9X+q6+9ZSub+P7Zo70fMHh4jgX1zEbup83rZn94j6Y7/LhierYyrCESf/22peB8phnvdT6eWvv9UJojm0Dbx757kDXEftt04TI/8X8yq3HsQlx7mTOdVuw3zueeqxx3L3KR7v5rBjqkXOoR8q5Hwuv67cQx+3kz8OQFqo+aSnPsmbtdVfit7kcGD9iT4djOT/CoVyJpxf039LPP/9Mv//+u363P3/++Sd98803+h2con0dw9X4Sj2axRfym0CNJeQ/Jh7N08+8jZY7CnY+yoiPnzxhZ09KcGxOoWzUrRNQ7mFfkNcO51Bp30Zb5ZyhbQBQDOcQN6hH4NSgbB8v1CcA5cT0Vzv5QENasCcZAEISlXo8F505idz2luIpEb98gIv2UMQ8eXHCjugxzqJwZFAnAMCxQb0EAAAAAACgYJDBhbH4SvWrT/GMAFBbsggM0XoxTNK3Gy0k1aPZDXrCm9OL8HSHtNArdAVdEAwgENQJJwLnS7ggqJcKoB44HziWcCjIe+cDxxIA4GJgkAGO02BOOz3nW3oqOn5fMJ8bNMVpO1vSPRIWjhHqBAA4NqiXAAAAAAAApKunT5/mJlH64Ycf9F8AAAAAAAAAAAAAAHDpvv32W3r37p1+l8DCzxDMKR9D5D8Au3MuGyj3sC/Ia4eDtAeAU4d6DOA8oWwDwKkSU9xh4WcAAAAAAAAAAAAAAAgGgwwAAAAAAAAAAAAAAFBL4EGGFY2vrmi80m/PxpZu+1d01b/lv3w1+e4FW43l4ze2vLS97cv/s73OL++lbVe3NO6n49/vj2l1dJmrrXzPdYzY74Uc7+N3bPVbC+egrchzZpnrU59/wB7fLa1ux9Q3th3fFm3LZD3H5Ve/9a7bMt9vL6zu24avnz2Pacm5w47z8DidZvuLWwA6vi6vOIxV3+E8ZEsDFf8+3dozidhA5REzMVzDd7AEhLOG8gEAIaFOgb2qagN7Xneck60Zy/z16Gos0sO4RioU4Fq2IiwH1+a1LNRXK98cYf6yCDjIIDLvkBb6HUBtotE0LM5Jmw9r/dclURVKdzilxTod//V6QcPuFfULW6HnYzXmOiaOfo8edvWfAG2cg0Rd1BV5zixza1ovhtQVg3v6k8hq3KXhdMFbRNa0mPK2BVcHq9cc2tFjGuj3vnVb6vsthtVn27D1s+cxrTh35In9d2maVCpsX3E7YpyHyvItwEVD+QCAkFCngFV1G9j3uuNcbEUnePdF7trmEI4pLFYtX8tCPUefbxoKMsgg7q7uX4nMqz84Ox2a3O9odz/hv6BdW7q9nhoVW9aWPr7nf3oz2uz4mGRe86i37syICn8qEqU3ouVmY8R5Q5vliHr8X+vpdfHdLmdBH3viNJBxv6cJCuSBHUfd2M45KKmLRkujzG2WNJMFbkHPzQK3GpPs35ZlNNl2JLblhly+babycy8eKfOt28zvtxhWr3iFq5/9j2nVuSNve/tc7r83WibhjeP2PFOfhotbUIN5Jiwbdcwt4cyGcbRM/3/02ixn8pyST4P6in4rfp3ryRsOC+UDAEJCnQJ74NQG9r7uOB+bD2YnuNDkerTZtWzYsITW9rUs1JXPN65Oo1+64SADZ9x+X95dvebMOJuN9OcA9Wxvr2m67pXkpQ3Jm0m/fHDUBSuouMLnBuz9nAYdM+Yd6nCD934p0mtN0xcXUPv3HhIeYAClzXOQrmtGS75QNMpcZ8And25w8Z/rDxv1GZNPFfBl4uyVKKPqM7Ht/JW6eFy8zpTN7Ru647ruyaNoY8+6LfX99sLqF68Q9XO9Y1p97sja0ps7DizXq6/4YjsOL8ft5olseZORZOxyzj2dwSQ+p6TTAABQPgAgJNQpkHBvA3tfd8DpE08lXPlM0drytSxAgYaDDCrjjmZL2fk5eaA/PjuiwrfMfbVdybmckznLrqg/vi2ZH1/vJ57fzNzQ+A2uQJJ557PbnbHVmLrTNdeD98V5afuR5M2kFzRPTlLhl4xYDm5oOZvR8iaTLk55tCB/F30u5/VL9nfVH9OtnrvPPmVTWb53xHnj6ko/zbGeUlfsyzzD6njGYbLMH6jmZrTNbcrxEd8x4+mwvzheHI5krvbxEa6P0aZ8HpHpLN/z/8VpaB5383ORHy3zPDrnsTbPQdyocr7bK7rL/QnFYwaRziOSfdbvP6biuX1zxxcQxvaedVv6+22F1TNeQernGsfU4dyRn9vYfieIOP++kBXNiB6byXmB5x4AAAAA2BfXNrBf+3y/12Z2W26r983v566tOQzRNWVhX5jaRt58SQsaiv+X/QHGd8V/pWw5/kbcxBRBqY0Kvqv7Aor7UDzDkkm/Pv9/+30G7V3LHj5PqeOaOj65Y6tVHkslVJzMbYryeT7fmNQ2+d8X9P/F+ct479KH3CjN3TUcZBAZ957mE+MuwEshRhK7QzmXs+iOiKwXUxp28/ObEX2gF2Lu53hjMb9ZN38wRQdqV8y7r98XbXd2OMOL0iZHWvVHNpsPMr2/5JOwuYBN+eDOKSup8FM6NJhMKPWUg3cedaD3mXp8c72gaWruPpNjvm/CiGciP3/g4LG6S+juTea3V6/lfJejZ7qz0XF/sffP6TqKoHjK4uIqQ7s3YoqvOA3VcR9zIb3NzIEv5oS8NvODVx470DlI55mkw1nfKWK9y71DD77kf9YfeKuEnN/f3N6zbst9v0ijsHrGK0j97HtMHc8dFaKBQnn+7c1ouZlzSAwXdO6Rj+nL1i/WvQHIQvkAgJBQp0DCtQ3sf90h7OfaLE+0sbucx1PLAsjfz/yOELgv7LVYY8CMG4d72C1ZUF0w+gLSUa7Zh2JJvzXHs3Z/TAgBrmWFQ+UpuXZE9vjYjm2NY9k0TuY26vs+a1rU7DtzKTcN09xHwIWfL8vqhZrfLDWX825DSzVpGQ2zGYkP4IJEx4XadqMffzMfUYoZ+9zICdMKtjsjckFfMdd+RS/RVva4cwpzYTUXsFEVRcUJ4ySVVfjlvPNoJa5c9bx+vZmRR6O5RG188n0ZOQdqZt5TnVfieBphiuNpzh84eJx7LFBYySdFkruWnfcXEflwpuc5PPL58faGT3TT98Zx13lkMeSTppkf5OPhvPndm2Q03jeP7Zs4QYuLQTHNTu1FQVYkst3IuFXer27Lf98qSFjdHaJ+dj13dCb3nJeK13ERgza9ns5louF/nb4D6RzPPYuhGijJvuRj+vz/vdGzYOveFP2Wep3juRtOHcoHAISEOgUO6mDXZqv4CeHoN+RrM1PX5fHvGAr7wtRTyCqIvD+xTWn7f0GLxYgv06P1CKJ+kPIppt36UFzDYqafEQ4ZrwUdZAaiUNeHB8xTaqKP9Fo46nfSN5T699nWjZPxW0ac8n1IFfmmSd9ZaR9y0zT3g0GGWpKMnZrLmf8azF+pjtDFa97KpKa7ieY360xUh2d2Cg2Z2Yx9dibPCrY7H2J0W9Rzo2XmzlELefcusxZeLjYXsSaBkzp5tIKcA57/5Qrs3rjDIplL1MY139fEJ8nnIp6ZMJnxTOYPHJB8mCEVb51Oo8cq73ntLzKiZ6GuCs5G5rgP9GOWon67Nz+/UXkxUiuP7ZFolHXFCbpi+rIqcuqd9B1rXnWb5fs5ocLqYd/1s8+5o8pgvqP7ezEQoRtm3Mg07zq5qHNPr8dpuqF768USwIVD+QCAkFCnwF4c6tpMT9mzm1OXr/5XKzGdzJj611MSl9x5IfvCOM6bOU3imR5c+kFC96HoG0Zl+hnhkDc/5ReIT1upKZ2jl7yu459PDSJ6DhoGvT48VJ7S1nd0LZ4o5zy15TQQ65SKNE3SOUCfrXOc6vQh2WR+37nvrKLc7LmPBYMMdURzMz95ZGSgSIceqUnL6KOZE3LT3XTpoZkxI7lFbQu2OxdcIMVUM2Jkt7ySVURHkKo8XCuKU6ePv++JtU4eraKnC7HePd19yFWihWu+b2oxNE620Us/amaknZoyybhrIJoqKRsnx/1JWIja4kt6kM941WlVJ4/tiZxORzTKenwS3xTfEe8itx4D86nbbN83hQyrD+c4yDVW0uXL+zFoz3OHj84kn+bneO4ZLVWc5GuzVPHgUjZ68orTNGymSf1W7rW/PArgCuUDAEJCnQKHdcBrM9GxzW39brdLw6GYTiY7dZIhaF+YLc4V/SCh+1Ci/R3BXGjhrw8PlacGdCMr0LV6opzzVLcrricz6x/UOpY14xTx6UOyqdt3VlVu9tzHgkEGOCjZWcb/rqfddGEUt6cyNVLrMkKr54o7O9EceHeUXUogq3hh4wtnzh+oR53VSPKWbsWQc29GNz6dlJb5COGccT7pc8NYtA44r4iF2PLXgmWDgdG6KtHJf0tv7tYFDR6bbN1W9v3QYfXZtkz4+jncucPGJ7xncu7pDGhyL6akc5z7swQWx4azg/IBACGhToFGQrXP92FFY30Hfm80kotaL5cb2myW6k5rKBE9BaJfGzW1TXoQ0WWwIPT14eGJaXBFHprJJ8ojoj4dUjdeFPnIXFAfEgYZ6ug8INXva5lDjj8RHUCFo2DQgH5kzFpxHF/lF8rgRpxQ1jTNzBGeEj2iFY1+1smjuYpPP94X0aOc1ke99OjooSRzHNpefCLV23HCqFFrcdexfmzM1lnrvj8I6ujymGiUqbsPZJ4oXHOjZDAwejwxXldFlasvU4XPp26zfV9oI6w+23rEQT/Oar6SR1v3pSy8+vHa2KWce8Q8oeqibz29zg3QdFRmyC+er0UDP/m8CXAOUD4AICTUKVCXT/u8oabXZtGsAUtu68/nclHrwaBD8QxGrbI9cVDRVxe6ny/an+96lMG0cX3YUKDr/Y4YrJ2raad2m41cX0DNYqvjcIA+26PtQ9pzHwsGGWrRc7uvp3Q9Nh7J4b9W42v1OEw0xzuUUotxWgqhnhtMjdRGI7QF6b5dJZWn893BJ6QzoWc63t3+mG5XZjXJee52rOfW4/R6Fp04fPKoPqlwE+B53MIVJySxoKqho+ekWwypbzyKtl3pxYMOQYdJNM7HHPZUyqw4XUTHoDGvutB59IQr2QW9fiEa5z16Yj6TVmN/ENCR5bHVWNUrsmFc0QmupuISg4Fjioso101jvchS/HiibGwnC40rHnWb9fsthZW5b7vf+tnv3GFTFl5V9/VmN7qOvKRzz4DmMg0tA9vR4vnyrksjHfivLZ+HxPRVnPK5vAlwPlA+ACAk1ClQj09bvpFA12aiczPOwyKc2X4Gby5TFmXSh0NQ3Vfn04cSKQuLfkKA02+cBESl3x76Fdq6PmykaZ7S02+JtBNrMUidDnW6D+ihfqvUOZY11epD8ph2q6l997F8/vx5Z76ePn3K1+k1LUc73uWOM7G3d+/e6b+O0WY369GOejP+S9vMdnycZHzzr95ulmyY/66U/dx1u+MV9BgW5qXljuuKTHrrV4M0Ou78J+h8YIu3fvWSTKc451Gm0zv16o12o2zeK92nGQb3/LyZ9fi7mfBYFezTJ56SkZa2PNO4bItd5OPk+tmxKS8b+TTgayWO04hLqqkorSyfO+cxC89zUGncKsKhXul4qrhbXkaA5DG35TvHus36/ZbCGnHftoX62bddUbC9vaz5hLdZ3PZ3jimul2IOaRod82x5U+loxD3zGi0zv2o7t1hf2TojnOM/v8P+oHzAaUI9dqxQp0AzpWW7Iu+4ts/Vdtljvqdrs7L2s3xF4XIPT6pcyLjmt4niPLKmkZkWvvG1Xcvr/ysIS/H+PPsA9H7K6pKUFq8PD5unSsIpXmZYPY5lu3GqkW+k7OdV7yO+4atOcxvxPRs8yVBXZ0L3uXnAetQbLWmzx4U2L8+A5kXpXvj41zkQj9SKx8BG1OuZcefYy8V7NvnRaZ88OpjTZsb71m97IzFf301mNJjpfaZ3OaLZUs0ReBDWeKo42Bc1ihb64W1sdx977w+COpY8VuPRwcF8Q0s+oyfh7Mm5RzfxysTq0Uz7Xe8udVvB91sJa8J921Ornzm8u00uvDJuufBe1rlnMLdP4SDnQJWPI5vpwCkhy6hYhPvcUgIgD+UDAEJCnQJ1+LTlG2l0babaz+nvcjg5/y5Fpq9xN3dn8izZn3UNgcRjTiOz7S77OKqmrbH2Beg2f6YvwCksBenn3a8g9rPbcbnX76u0fH3YSMPrfRXOpO9K0vlqZ4bV41g2Zv0tEa18H5JPHg6mYZr7uBJPL+i/pZ9//pl+//13/W5//vzzT/rmm2/0u2OzVVMikOh4PeeO7GaO+xiWO+WwHwXx2Fp3SjSzDHY4WI379PEGHfjH6GjKRsM8ZoNyD/uCvHY4SHsAOHWoxwDO00mX7RauzeDCIU/tX4M0v7q6ktMVZ+FJBieZBXABLtJKL35qzm3I4rn6MusbOBOLrGKhdBDaymMAAAAAAADgDtdmEBry1P7tN80xyFBhNeaDcaUXpgm1ojrASYoWz1nQsCvKhX51uXzIhXOe1XsSYfWaKF5gFS5bS3kMAAAAAAAAPODaDEJDntq//aY5BhlKbenje/2nmDct9FxkACfGef47H4M5zXEmAa2VPAYAAAAAAABecG0GoSFP7d8+0/zq6dOnuUmUfvjhB/0XAAAAAAAAAAAAAABcum+//ZbevXun3yWw8DMEc8rHEPkPwO6cywbKPewL8trhIO0B4NShHgM4TyjbAHCqxJRLWPgZAAAAAAAAAAAAAACCwSADAAAAAAAAAAAAAADU0nyQYbuicb+frFB91af+eEVb/d/nYUu3fY5b/7ZGvJp894KtxjI/cVbK2d6a+S39sm0fwmos9j+m6t0fwfHe3lJfpEdbiXGxRF3Xfl47LceQ31s+B3ntf0ur27Eqf3rb8W1JWGQ9l9Qr3nVb5vvthdV92/D1M8fJ57sl5w47zsPjdJq5p8MVp++Bz+06vi6vOE2qvsN5yJYG6tj26bYowrZzj2v46mUOgHIoHwDQhFMZLbo+1G3ksnpB0L/hU8y3q9tMe4/bI/0x3a4sP4R65rSV5g/P645zsjVjmb8e3WvfTUVYDq7Na1mor1a+OcL8ZdFskEE0mLtDWqzX+gNhTevFkLp8osOpCmoR+Wq40G/yNh/M/AawH6uxqOv0G+rRw67+Ew6n7XOQ5/5X4y4NpwveIrKmxZS3LbhwW73mem70mAb6vW/dlvp+i2H12TZs/SwaxRwn/a5SxbkjT+y/S9OkYLOiuIlGXTYdeOvFlNP3uBt63jgPleVbgIuG8gEALrZv6E42GNZ09yZcK2E17lN3OM2090TVtKDpsCs7D+FMVLRrfa87zsVWdIJ3XzS/zgvgmMJi1fK1LNRz9PmmoQaDDHzBfT2VGXC03MgFH+Rrs6RZjz/kE93z0mH7U9KhyT3H7X7Cf0G7knxlt6WP7/mf3ow2UZ4zXvOotw4gKJ3vaERLmdfuaYLKgB2ybmz7HOS5/9WY5HVAj/PIJtl2JLblhly+babyVC8erfKt28zvtxhWr3iFq5/FXXr9K9Eo1h9Uqjp35G1vn8v990bLJLxx3J6n7jzc3l7TVOw8kw4qfad0faj2zmCeSuPdbqPCZDkG2fQfLdP/H702yxmJXWTToImi34pfOHlDG1A+ACCA8jI6j28WMa1eiDbJiEYj0UwI1Jm0vaXnsmHUo5nZ3uPXZjOT7RfReWjrD0Q9c2oq2rXe1x3nY/MhfcNPs+vRZteyYcMSWtvXslBXPt+4Oo1+6QaDDBuSNyzyxfl8YESxM+CIc2bkP9cfNuozAEeqI4cbTjORg2x0vvvywVEXLDhTvYeEBxiORdvnIL/9y6cKxEXfK77YjDbnbeevVIfU4nWmZSbvcOvRk0fRxp51W+r77YXVL14h6mduEPfVXXprbuQWnwvSqs8dWVt6I24x7M3oFV9Yx+HluN08kS1vSpJMb8spubxPp8M5tnc6gwndL2WsjDQAAAHlAwCqrUg2n0aP6eaxqC8WlG0G1rF9c6c7DO9pYrb3WKczKW5zwsmpatd6X3fA6RNPJVz5TK3W8rUsQIEGgwyc4S5m1Ft0eljmvtqu5FzOyZxlan5m23SIit5PPL+ZuaHxG1yBJHO/Z7c7Y6sxdadr1XB6oD/L2n4keaPsweaq2XIwkzntxPyXxcfb4JNXPLc159izzq/H6Sr/L5eP1FznZXNwyvkMZb7n/BnH28yT5ufZ3y8oN0Wfy7io/ch98f+n4+yzP3WcUmnoeqyyZPp11V3M6yl1xf7MNNPHK/od29yFal5I25ys+hiYYXfYXxxnkd7xHPg149dIPu2b5Rktkxeu+Njd6vkhk3zc9jnIZ//RHfxPKB4ziHQekeyzfv8xFU95oWhu71m3pb/fVlg94xWkflYN4tFsSZv7efG5wORw7sjPl26/E0Scf1/Iwj6ix1FyygEdjtfsxnK34iW1hQAAAKDS6rWc6nHEDYnO4LHszFs8z16/+Os8+FL/VaAzoXu0SU5fZbvWr32+v2uzYluOU9/8fu76lsMQXVMW9oWpbeTd9lzChuL/5TW58V3xXylVfTcF39XX48X9MZ5hyaRfvp+jDe1dyx4+T3n09VQeSyVUnMxtivJ5Pt+Y1Db53xf0/8X5y3jv0ofcKM09fP78eWe+nj59umtsOdrxrne92UZ/UO3du3f6r2O02c16tKPejP/SNrMdlzUZz/xrtFvqzZLvjnYj8W9m2ySN9HaZ/49ePml5KM2O4XLHDbAdn031W5WHorex6PMZb9/rJekzmu2WDZKoKuzLkfgdPoby3+yrt0sOT5O8wkJsy+kiP48TL5O2kaI0Nsh4c1xmlniPOMFteTaXp820kHzSyFaWqvenjpftZR4rRzqdUq8o0cqOl5mwRXVi9hi47i+Osz7W4pVLlzDKy0ZB2vP7enmGlZYBx7qwKL0zatdZuf0XlDEtqj/M/5WfWfKIa92W+36RRmH1jJdnHJxE+yyMaiaMBdtvZiI8xeVf/b8Kr8i/qfAa+9wsZ6lzuWvc9tfGKaonDRVpKuKoymA6varSMC675o4rj1/79pf2cPxQPuA0oR47kFplNGrrJu0j1V4qqB+8fiNpR4v2x4wbIIV1WQT1zFHLl22Xdq1f+1y+P+C1WaqNnXkl37WHI3qp7SzbyDTQnxvn9igN2uu7cQ9L8f6MaygXej8Fh92Pzlf1rg8Pn6dUeGyvTD3rdCyVVuMUp2tVvnHsM47zlz1c0StkmtuI79k0W/jZRjzGI4ZmxBQEZzxpuZpnkaM5MuZy3m1oqSYto2F2RGq94E9n8fxmG8698mPbs9bGPrlSlh+d01QMNnJRXTEVRcVI61YOsXIKT9ML2IjFN4dd253iIfExXIxotonmtIuO95qmL7IjkAmfvOK+7TaeY683M/KLmCuY0yVJGWFA6knd16n5QNUjccbdukXWU5q+N/Kuno94MezS1MzTXDPLze/e6JFVV2ZcjLSVeb/O48X6EeXMnMsqfDUWX5NzOmfmcdb5ND5exjGIj5c5d6G+iylbjrPHwHl/EVEGojQ7prn5aueZknwt/99B2+egIPtXeVTc4Rbxq9vy37fa8/n4EPWz67mjM7nnvFS8lopYsLrX07mM8+/wOnMHEnv/PFpsUX/AVNzGqbr1VCyGxp0sxktOVcX/3xs9C7b2TNFvqVfb524AfygfABApLKPx3aQGy9OPgxvRji2/XnQjnsLkaxK+LhDtD7HQs3zCml/iLt7bklujUc+cBtd2rbeDXZut4ieEo9+QL7GGCH9q7Tco7AtTTyGrIPL+xDal6dRm341rWMz0C9HPEUCo68MD5inXvh6ffjipQb+XWz9ORb7x6TPOKiw3QtM09xN2kEFk2K4IvJjL67gXo2gmydipuZz5r8H8leqMzHTo8sYyTaL5zToT1emYnUJDZjZjn53Js4LtzoeYxkLUc6Pl3DIVRZroCBKshZdzXvPGWxk+hps5X1TGR6fkeEd88orHtroBKyqT+4mRX+K5gtMGuflA9W+NHlemeS7vDvQjcyKv3puf36gwekvmC7yPT3QcZ9kp2GAx7/UdXYtH4VYr2nLh6egFIJPfaIjru+cyDdPHQIZdH69k7kLbQE/mGHjtLzKiZ6HiE1TNPOOZr3PaPgeF2r+cVqhH5qxCXnWb5fs5Bzgf77t+9jl3VBnMuW64V3WObJhxI7ObaXiu15yaZtz4okVc6Iu6NddIPWW9Hqfphu5rV74AZwzlAwBKqI4mc80tFk03Uni96KNDk7lor2xos1xyO2QkqiVuoyzkoIN14ANOQsh2bd6Brs04JnLKnt2cupwzxXX57XhM/espt55tQvaFcZxb7btx0aSfY6WmVY5e8rqOfz41YOg5QBj0+vBQeUqr7OupcyzrxqlOP45N5vcL+4yzKspNqDR3FGyQQc53LDKsXI28+G7BsxDNO/3kkZGBIh16JHPie/po5oTc/GZdemhmzEhuYdmC7c4FF8jrqei42Th1JouOIFV5uFYUIX1JD3IHvOB4R3zySo18ZZ37XN81nxLNBxpVbsZcodVs8WahFkGO4t1oHnfTgG5kZliru4yHQ+p21Uk4v7ZBAIuhcaKPXl21hoNxQsgN9BQdA8f9SUe7EHXNPLP5IBtP1nzZfcin3WJtn4NC7j+3HgPzqdts3zcd6nzsHAe9Toz58p4H0vPc4aMzsZ9PxG+l4sYXLZO9nHvaMVqq4yVfm6WKB5ey0ZNX6QXiAkj9Vu515m1GOEkoHwAQKSyj99lOOt2pxa3Zqbz2iF66Hc8t/+fBHhnoUGcw4HbInO7FGlPipg5RUVlukhBQzxy5Ftu1yv6vzWKiY5vLQbfbldfl08VCPoxvFbQvrOW+GxfB+znqC399eKg85djXU+tYNuz38unHsXHtM86qKjchyrGHAIMMW7nYhFicRowSiYUaA7e94YzJzjL+dz3tpgujGMZnaqTWZYS2Q1VrYV02XRnrjrCVuoW+eqqkEyWmRtmITgF5l3FkLadx6e7zDp/1B4ofbtMj3mqgh+tNMdzNdeaNzzEw9wda2+cgl/3rE7m18RAtpBWd/Lf05o4vIqwNHpts3Vb2/dBh9dm2TPj6Ody5wyYTXt34+tLa6jyTc09noKZg6Il6stto8a9juJACCArlAwBc6BuIylinh3Gi72ouvI7p0KDgJgk4fn7t2lDt833gfCs6tvmv3mhEo9mSlsuNvE4Pf//0uYmeAtGvjZraJj1g6DJYEPr68PCOpq/HxwX14zQcZBAZVo3MyDnGcqP5Z6rzgESfgr2RoDqACkfBoIGyxtU+Kj/bqHXF8fbJKzXylXV+toIGbufREz4xiTvpfaZKCiBXoerHBiNRvF3mmhOq9qd1RKeAfJxYnJTFI8UzUrO23JHvsgxlZN0Xn+izLz6J6+04RGrEXDT89SNrto5i9/2dId2Za32cUI/Ap7V9DnLdv+5otuWt6PHELx/o76r8mu6w9qnbbN8X2girz7YecdCPs5qvYNOYOSsLb3QnoqbrKPtjrjpuZ0HME6ou+tbT69wATUdlhsJ1baILZPtgDMCpQ/kAgDLcDlPzZah5ti0vOSvFekr1Zo/UU68Gvo6BU+TTPm/I+9osI3pyf8lt/fmc5pMBDQYd8TDwHrTcd+PCt58juDauDxtqmqe0yr6e0MfSwdH24wRKc1eNBhlWY5VhZaVxUc/YRSf5KV2PzelXtpwm1zJN9taBe+LUYpyWQqjnBlMjtdEIbUG6b1dJ5el8d3Ada5pejylZU8vlePvkFY9tOxN6JrZdDKlvPBa2Xd2qhXxs9Hygi+fP5aNj1selgtInq9SjweJEJxa0MumRc7kgjhFrERfRCRg/8uu4P/1IpviemJ9P4pZMp/uAHuq3Qej0FJ0NYw5PEnIR9nEm7Eo80PNCdDbY52v12d/ZieesdcvXbZ+DfPavpsPK1BFcN431IktxeZON7exTRB51m/X7LYWVuW+73/rZ79xhUxZeVackizbqbUW+LIhbXDefvAHNVS8IH/PMAEy0gL28k9tIB/5rezuWj/lzQpztE3IAKB8AUCjqiCtpD6gFoLk5Yb1poVrcJutapoA9yzbJ5fBt1/q05RvxvDYrIvJ8nF9FOHP9Ab5cpizKpA+HIGzfTaQsLK79HO1o6/qwkaZ5yrmvp86xrKlWP45LHg4kUDl29vnz5535evr0KddnDjazHYdzx7soeY12S715lXfv3um/jtFmN+txfHoz/ksrjX9vN0s2zH9Xyn7uut3xCnoMlyOZllwhZix3XFdk0lu/GqRRVdj5/M6/MdqN5L/Zl5nPm+QVFmDb3mikPs8nHn+lp7dzK5tRvNPbeuRVfRxTrx6no3MaZeLsuD8V7oKXkS4qPTK/YVUQZ5/jJen9iP/PpR9z3l/RMRC7yMfJ9TOb8rKRD0fjPFOaBpy/owBXbKde5fm8NG419l+Y77J5znbseU8udZv1+y2FNeK+bQv1c+G5oEDB9vb87hNe3jYqu7lXeT4T9tfGKa4bYg5pGh3zuLxpKh3NuKdfo2XmV211tvVVnYZ17S/t4fihfMBpQj12IA71QSQq/+Xb6jrIbI841APmPqvqGXFdlAoC6pmjVlm2S/Kga/tcbZc9vi1cm1mVtLXlKwqXe3hSZUDGNb9NFOe2+25cwlK8v+rr8BS9H1tesGrx+vCweaoknOJlhtXjWLYbpxr5Rsp+XvU+4hu+6jS3Ed+zqf8kQwuPVZyUzoTuc/OA9fi8vqTNuS98fVADmhel+x6m63o836R+uzea0abq0SefvNJwW7Hdq5vi+/XVnfRsX3e4DOa0mY3UbzKZXvc3+ScKdFzS0bYsSuS4vwEfp6WxndTrcR2+oV3I1bSsx0uFy76gUrTIEG9ju6vbe39nqCAvzJbq7q9Y2+egGvtX+Y7Lq37PAZdzj27iPKcezbTf0e9StxV8v5WwJty3PWz97I/Du0vX6XHccuHlbe85HXjb1NYibmc4jdlgbp8WRs6BKh9HNlOB00GWUbFY4fEdZYDQUD4AIG1FL9RtsRVPK0XXAcVTq1WR9YxsJ6fbI/I6R7Zfzq9NAnY+bflGXK/NrNS1Qfq7HE4+Jy7FibTG3dydybNkf9Y1BBJt9904haUg/byv7cV+djv3hcFbvj5spFGeisLp0NfjcSwbs/6WiFa+H8cnDwfTMM19XImnF/Tf0s8//0y///67frc/f/75J33zzTf63bHZqscPSXRoHmNHyXE47mNY7pTD7mU1lgtIjZYeJ6gztxr36ePNhXTg13A0ZUM8GtmdEs02waZGuphyDweHvHY4SHsAOHWoxwDO00mX7RauzeDCIU/tX4M0F4vT7+QDDWkNF36+FPaFZQFOipirUyxI1pvRDQYYNLHAa9gFf6CJlV6M15w/k8XzQWbWsQAAAAAAAIAW4NoMQkOe2r/9pjkGGSqsxnwwrvTCNKFWVAfYK12pdIdygZuQi6+evNVronhxVzi8aIGmBQ27ou7VL867C/kU+jM8cQIAAAAAANA6XJtBaMhT+7ffNMcgQ6ktfXyv/xTzpmF+GThJXXqoJ1oT88/h0TPDYE5zpMdRcZ5jEQAAAAAAAFqDazMIDXlq//aZ5ldPnz7NTaL0ww8/6L8AAAAAAAAAAAAAAODSffvtt/Tu3Tv9LoGFnyGYUz6GyH8AdudcNlDuYV+Q1w4HaQ8Apw71GMB5QtkGgFMlplzCws8AAAAAAAAAAAAAABAMBhkAAAAAAAAAAAAAAKCWAIMMW7od95MVqq/6NL5d8afnhOPY57j1b2vEq8l3L9hqLPPTeKXfG7a3Zn5Lv2zbn5Pt6pbG/XT8+/0xrY4uc7WV71cc/8s53sfvGOq3ls9BW5Hn0vvvc8az739Lq9sx9V3DIus5Lr/6rXfdlvl+e2F13zZ8/cxx8vluybnDzif/cDrwts7Hdx90fF1ecZpUfYfzkC1e6tj26bYowttblTZm4ruGr17mACiH8gEATTiVUaMdlqLbyGX1gqB/w6eYF10P3touCFHPnLbS/OF53XFOtmYs89ejq7FIj6KyaQpwLVsRFoBL03CQQXRodGm6WOv3wpoW0yF1caKCusSF2HCh3+RtPpj57VKoE1Z3OKXFOh3/9XpBwy43LktbsOdhNR5y/PUb6tHDrv4TLlTL5yBRF3VFnkvvf73g/YvBPf1JZDXu0nC64C0i5WFZveZ6bvSYBvq9b92W+n6LYfXZNmz9LI4vx0m/q1Rx7sjzyT+iDuZ04G1d0uGkcR46y3gBhIDyAQAutm/oTjYY1nT3Jtw1mrjZoeh6cDrsyptL4ExUtGt9rzvOxVYMrHRf5K5tDuGYwgJwLBoNMmxvn8sOv95oSZvdTi76sNssadTj/1w8Lx+1Pykdmtxz3O4n/Be0a0u311PjZJm1pY/v+Z/eLMlzxmse9dadGdGImIpE6Y1oudkYcd7QZjkiUeTW0+szKnM2+tgTp4GM+z1NUCAP7LB1Y7vnoKQuGi2NMsf7n8kCt6Dn5g+sxiSvA2QZzYZlaLkDSeXnXjxS5lu3md9vMaxe8QpXP4u79PpX5qBilapzR55X/lm90HXwLJ0O4v8O2d4ZzFNpLM4J8phbjkE2/UfL9P9Hr81yJs8pIeNV9Fvx61xP3nBYKB8AEEB5GZ3HN4uYVi9Em2REI24orKeBOiG3t/RcNox6NDPbe/zabGay/SJuLrH1MaOeOTUV7Vrv647zsflgDqwITa5Hm13Lhg0LwHloMMiwpTdieJ4b6q/4pBQXos6Abp6I2m1NHzbqIwBX29trmq654TSTXTcWG5I3yn754HIq7rgRwRfF99yQ7Zgx73CRm9P9UqTXmqYvzrhFEek9JDzAAO2fg3RdM1rSfGCUOd7/5F51Lq+NH5BPFYiLvleijKrPxLbzV6pDavE6UzblHW49evIo2tizbkt9v72w+sUrRP3MF1V9dZfemi+cis8FadXnjiy//LNVoyecDpN0Oui6N+RdiofWGUzicwracQBpKB8AUG1Fsvk0ekw3j0V9saBsM7CO7Zs7rnlEc++eJmZ7j3U6k+I2J5ycqnat93UHAMCeNBhksI/Sbbe39ELe7jeix2czIC46PSxzq21Xci7nZB68K+qPb0vmx9f7iefMMzc0foPTMJl3PrvdGVuNqct5RzacHujPsrYfSXb1XNA8OUkjomREfHBDy9mMljeZdHHKowX5u+hzOe97sr8rMQeong/SPmVTWb53xHnj6ko/zbGeUlfsy7xFQ8czDpNlTko1N6NtXlSOj/iOGU+H/cXx4nAk89CPj3B9jDbl84hMZ/me/y9OQ/O4m5+L/GiZO9Qpj7V9DuKGuvOdXdEd/E8oHjOIdB6R7LN+/zEVT3mhaG7vWbelv99WWD3jFaR+VgMVo9lSDqoWngtMDueO/Hzpl9SGAQAAgL1ZvZZTPY64IdEZPJY3eyyeZ6+z/HUefKn/KtCZ0D2eSjh9le1av/b5/q7Nim05Tn3z+7lraw5DdE1Z2BemtpE3X3IJG4r/l/0BxnfFf6Wo9dSi382vZVnwXd0XUNyH4hmWTPr1+f8vq88ALkmAhZ+VqJOt253SoiemE5hbHx08G1z5ifmvxVzOojsisl5Madi1LTLzgV6IuZ/jjcWced18pSw6UEUaVm13drjiFbW0vBNXf2Sz+SDT+0vacEVtngzPtaIuaUSkdGgwEXfYGht551EHep9J/mRiDtDUfJAmx3zfhBHPRH5OyoG8k8hyx3F0IfBMdzY67i/2/jldRxEUT1mUHqfL8UZM8RWnoTruYy6kYl57M23FY93XZn7wzmPKXs9BOs8knelld/B3SF4Trj/wVgm5doG5vWfdlvt+kUZh9YxXkPpZDJjc03xiPF1QyvHcUaEq/3QePaEex256bcRFXDA8l6lrPJFy+uRUVerxOax7A5CB8gEA5bitK9sG0c0KA1KXIHfU+KHHwY2c8m0xVG0rsdBz013CsXFp1/pfdwj7vjaLiDZ2l+OUXkZEXVunfkcI3Bf2WqxbYcaNwz3sVizGbvQFpKNcsw/Fkn5rjmft/hiAIxdskEF0ePR6YtiUiULDF+LnfNJT8yzyJQafAJJ5XTe0VBPh0TDbGckV2oKSuZw3+tE3cwqLmLHPjZw8tmC7MyIX9OXG2LKil0hNWcEpzCclc8ErVelXnDBOUlkjopx3Hq3EjRA9N2RvZuTRaH5iG598X0bOq5yZS1nnlTieRpjieJpzUuo7ibK/vVLPM8d3LTvvLyLy4UzPi4r5FxU+B0zfG8dd55HFkBuxZn6QU07w5ndv9PmiRh7T9nYOEg1F0fgX0+zUXhREPUYv7nCL+NVt+e9bBQmru0PUz67njs7knvNS8ToulfmnM6FXnF978qJA34kkLxh66k6zEyz4opNCxiPzklNV8f/3Rs+Cxavot9TrHM/dcOpQPgAgUlhGbXdOy+ksRdPrJr5ZYXAj2rEhprUVT2Hy9RBfk4i2lVjoWT7dzS9xh7YYdCiCeuY0uLZrvR3g2kxZxU8IR78hX2INEf40+R1DYV+YegpZBZH3J7YpTacFLRYjvkyP1i+J+kHKy6JbH4prWMz0M8Ih4xVmGjWAYxNskGEw39H9vbiI15UBV2Tnu7K9nmdRdNxwZZJcY3Q4HV6pjtDF68zIZHou585EdXhmp9CQlZSxz87kWcF250OMbqsB++o7j+Xdu8zaARyk8XYu6uTRCrrRLE7898Zdxsn8xDau+b6mrVgAjf/NhMmMZzInpb6TKBXvZM5Umfe89hcZ0bNT7GFsVea4D/Sju6J+uzc/V3dkxWrlMWUv5yB5J4poKFZMX1ZFTiuUvgvWq26zfD8nVFg97Lt+9jl3VKnOP1t68/o9xyJrTe+5Tjir83NPDJxs6L70wg3gQqF8AEAJ1UGZecIxmsLG99rLqkOTuWivbGizXNJsNBLVkrxDWww62KeMgVMQsl2bt/9rM0VP6bqbU5dz5molpiEaU/96SuKSOy9kXxjHeTOnSTzTg0s/SOg+FH3DqEw/Ixzy5qddo6ewAY5VsEEGU2dSsxPzVETzTj95ZFQ8kQ49UhPh0UezJsxNd9Olh2YFHsktaluw3bnY3sqpZsTIrkslKzqCRIVc1AF8fnlOH3/fE2udPFpFT4VivXu6+5BP4xau+b6pxdByV05XTdNkpJ2aMsm4a8CYMzXFcX8SFqK2+JIe5DNedVrVyWMWbZyD5HQ6otO+x43fTbM713PrMTCfus32fVPIsPpwjoNcYyVdvrwfg/Y8d/iw5Z+VfsTcNoCSe6z8RIyWUTz4tVmqOHMpGz15xWkaNtOkfiv3Os0nQeC8oXwAQKSwjOaeYNYdlNyanUZPPcqXvobgq47nwdoLHeoMBjSZz+lerDEl2iSioiq4yQb1zJFrsV2rHPDaTNz4xOWg2+3ScCimIcpOnWQI2hdmi3NFP0joPpRof5hfES5IK4MMogBWrUsEIMjOMv53Pe0aDTF+iWF8ph7tdHmE81zzXDSvYvU8nsULG184c07KaC5TOcqwVXOm9mZ049OYs8xxCccmZH3A+aTPDWNxdch5RSxGnO9fKhsMjNZViRrNW3pzxxcR1sarTTYuZd8PHVafbcuEr5/DnTtssuGNnngqfsJpPX0RD0icpM5ATcHQazb3rYALKTg7KB8A4ELfvFTGOj2MkxWNRTun8EkFcXd0+JtsYD/82rWh2uf7wPlWPlnNQRqNaDRb0nK5oc1mqZ5QAICz02CQoexEF43in6nOA1L9vrZGguoAKhwthgbK8tyxnVDDiefxLJtjfqun+Ynubq6TR3Od5/rxvoi+WyE/XRDTdzkcSjLHoe1lPnKq70AQje9ozlRLZ637/iAorzy2j3OQ6LRXd5/JPFG45kbJYGD0mHG8rooqV1+mCp9P3Wb7vtBGWH229YiDXGMlXa6SR4j35YLbMIXE/LLqom89vc4N0HRUZsgvnq9FF8j5vAlwDlA+AKAMt8P0gs9yfnbLS84us55SvdkjAy4gDSfOp33eUNPr/2jWgCW39edzmk8GNBh0KJ7BqFW2Jw4q+upC9/NF+zvz9VUBTA0GGaIT3ZSux8Z8xNsV3fbFgjWioyNZ8Oi8FMSd/1qNr9XjkNEc71BKLcZpaYjpOf7Uo53RI5xleU53rjnfHXxCOhN6puPdzS3qxXnudqznXuf0ehZ1LPrk0eiuXfMRXtFhqcpxLJ5PdEj922Sf25VeXPYQdJjEBf+Yw55KmRWni+hEzDwy3Hn0hBtLC3r9Qlzw2+dM9dkfBOSVx9o/B8kpcrisyIZxRSe4mopLDAaOKS6iHJaxXuwrfsxYNraThcYVj7rN+v2Wwsrct91v/ex37rDxyT/6jjGRL81t+a/zO+cPaK56QfID29Hi+fJO7nQ6bPk8JB7z54TI5U2A84HyAQAFos7dkvaAunGsoMPWQdwm6/b5OsWsZ5jR3jqfNsnl8G3X+rTlGwl0/S/yfJxfRTiz/QzeXKYsyqQPh6C63e7ThxIpC0tyDTFOAqLSD/0KcK4+f/68M19Pnz7l+szVcsdlcMe7yb96s91Gb+Xi3bt3+q9jtNnNepk4bWY7ri/scafebpZsmP+ulP3cdbvjFfQYLkcyLfmEmhEuz5mOO/8JOh/Y4q1fvSTTKc55lOn0Tr16o90om/dK92mGwT0/b2Y9/m4mPFYF+/SJp2SkpS3PNC7bYhf5OLl+dmzKy0Y+DbgtzHEacUk1FaWV5XPnPCY0qw9K41YRDvVKx1PF3fIyKjJ5zK1hc4uL9fsthTXivm0L9XPhuaBAwfb2suYRXu96Jm1/55jieinmkKbRMc+eV1Q6mnFPv0bLzK/azi3WV7bOCOf4z++wPygfcJpQjx2IQ30Qicp/+ba6DjLbDQ71gLnPqnpGXL+lgoB65qhVlu2SPOjaPlfbZY9vW9dmWSVtbfmKwuUenlQZkHHNbxPFeWRNIzMtfONru5bX/1cQluL9HXcfAEAVkY9tGq7JIFaL39BsxMUm1pNzrW0Kp2o4E50J3YuF4DJx74047ntcaPPycJ4rSvezznPiMf0NbfiM2euZcefYy8VdN/m7l33y6GBOmxnvW7/tjcR87jf0UL+P6X2mdzmi2VLdmXMQ1niqONgXvY0WbeJtbHdWe+8PgvLKYy2eg2pMATaYq0X3ktDosMQruJWtp+BStxV8v5WwJty3PbX62SP/XFi9MJjbp4URd9ptuCyOLOeh2VIsVnhmCQFggfIBAGkreuH0tFJ0DVI8tVoVWc/IdrLZLmP8XrVf5ty6gUvg05ZvpNH1v7o2SH+Xw8nnxKU4kfosoqx1Js+S/VnXpUg85jQy2+6yj6Nq6mNrm19fz2Ta/E5hKUg/9CvAuboSTy/ov6Wff/6Zfv/9d/1uf/7880/65ptv9Ltjs1WPH5LoeD3njuxmjvsYljvlsB+F7a2csolmlsEOB6txnz7e4ER7jI6mbDTMYzYo97AvyGuHg7QHgFOHegzgPJ102W7h2gwATodYnH4nH2hIa/gkw6XILIALcJFWeqFUc25DFs//mFnfwJlYZBULpYPQVh4DAAAAAAAAd7g2AwA/GGSosBpzpXqlF6YJtUo/wEmKFkJa0LAryoV+dbl8yCeEn9V7EmH1muhsF4kHPy3lMQAAAAAAAPCAazMA8INBhlJb+vhe/ynmTQs9vx3AiVFzPyZrN0h6XsVd3fIxmNMcrRPQWsljAAAAAAAA4AXXZgDg4+rp06e5SZR++OEH/RcAAAAAAAAAAAAAAFy6b7/9lt69e6ffJbDwMwRzyscQ+Q/A7pzLBso97Avy2uEg7QHg1KEeAzhPKNsAcKrE1GlY+BkAAAAAAAAAAAAAAILBIAMAAAAAAAAAAAAAANQSfpBhNZaPTYxX+v1F29Jt/4qu+rf8l+09JDhtxn2Zd9SrT+PblVs6XVCe265uadw30+mK+v0xrY4uQ7WV11cc/yTuqGcO7RjqtC2tbsfUN8vEOGB4tiLPpeumPmc8+/6zYamox2TdxeVXv93epsu2+bLm9cz32wur+7becajEcfL5ruf5oH54PcMVio5f+cvIEym6vPLxuy3MlKzGObXo3HRrOzk5xYFfe09cOGdRWe8XZf7trarjjHynvlNSXizf8So/NcoaABwH1CnQijavO87J1oxl/np0NRbpUdQeNgW4lq0Iy8EhTx2nWvnmCPOXRdhBBnFiHC70GwBXouLr0nSx1u+FNS2mQ+pWtZIuJs+pCqU7nNJibaYTp9R6QcNuSSP3jKzGQ46/fkM9etjVf8KFEuWiS8PpgmuMxHoxpW6Ik6+oX7oiz6XrpvWC6yYxuKc/iazG2bCU12Or11x3jR7TQL/ffEiX7Sqp77cYVp9tfeNQTpwbOE76XaUa54N64fUM17HYvqE7Gd013b0Jd75YjfuF56bpsCsvZACOxXp6XT7IBgDgAXUKBNPydce52IpO8O6LXHocwjGFxQp56igdfb5pKOAgw5Zur6dGhgSiDk3ud7S7n/BfUGR7+5wrPqLeaEmbHaeXeG2WNOrxfy6elzTcLifPiQp/KiLaG9Fys1FpJF8b2ixHJJLq/Bu5W/r4XvzLaSDjfk8TFKwDO2wdt729NsqFLhNcd8xUgaDrRgUiqV9GS6PMxftf0HNz/6sxyf7tTFhUPTa03FWm8nMvHinT+bs3S+pB4zWPRiJi5vdbDKtXvHzjUEzcGd+/Eo1i/UGlOucD//D6h6sdo2U+vMlrHg9cmVYvRPqMaDQSxSNQw5YvXp7LxOjRzMx7/NpsZjKfiAsZ27VJeRz45ZNhAJytaXp93HeAAcApQZ0CIbR93XE+Nh/MTnChyfVos2vZsGEJDXnqWOXzjavT6F8ONsigOnv4InPGV68Azrb0Rtxa2ZvRq/kgKSydAd08kbUffdioj7IuJs/FFf6MNvdzGnTMKqXDSTWn+6VIA27kvriA2r/3kPAAA8R1hxh0kuVCfSrqjsk9N4j4z3VR5eFkQ/Im99GS5vHOWcH+5VMFoqP1VTos81czOQi4eJ0pm/Ku8h49eRRtrH/vywdujYbU99sLq1+8PONgxQ3ivrozfs2NXNf6vd75wCe89cJ1PFYkD+XoMd08FmFfUDZL1rF9c6cvXu5pYuY91ulMivM/wEH0aCRHvqZ0Cc0lAGgb6hQIpeXrDjh94qmEK5/p0JCn4DDCDDKsxtSdrtVF5gP92ZmQ87nJaTe2xpoBYm6yaNTP/FzMBW7OWSY6JarmzFrJeZ3lnHHmRttV/TUKTop9NG7LlegLeYvyiB5bb8k83zyXlVT4JSOWgxtazma0vMl0v+t8lMyrJ/LobWYNh6J8WvC5nNcv2d+VmHdbz91nn7JJ70dub5YdD3y8r6700xzckO+KfZlnWIfyouZmtM2DqsugGU+n8qfjJcp8PK97phyfvXweaVZnai55THayc8mY3Vju2uYGkbj7otGd0D77iO6If0LxmEGk84jkeOn7j6l4ys5Zc/vtR5K7cJwDLP39tsLqGS/PONipBvFotpSDqk71u8P5wDoPsld4a4TrmKxey+mdRnxC7QweywuLxfNsne+v8+BL/VeBzoTuG5dFgHAe3jxT+X+YnyYAAMAX6hQIo73rjr1dm5XYclu9b34/d23NYYiuKbdinS9zOyOc/Lm8+ZJbtUPx/7I/wPiu+K+ULcffiJuYIii1UcF3dV9AcR+KZ1gy6dfn/2+/z+Cc85Q6rqnjkzu2WuWxVELFydymKJ/n841JbZP/fUH/X5y/jPeF5cbQKM3dBRhk4ICKVJIjZPqjM/RGTFcTz48g5ibr0phzppgP3FxLQEwL4D5FB6edmHZBdCBvjBFDMUrZHdZbo+DERZ213e6UFr0ZLUW66P9LXEaeU0oq/JQODSYTzkPGRkY+SuWkxZSG3ZoNYb3PdNZc0DQ1d5/pA70QZST+T1V2QlZiruVlIO/etcxFHnW+PdODOL7l7/1zuo4iKJ6yKD1Ol6N2nemaxzYf5PsvH3T4fGmeVO0Nh6B0nkk6p8vuiO+Q7Iddf+CtEnItAHP7KD68lbk4V1Fcct8v0iisnvHyjIOdaBDf03xiPNlWqsH5wCu8vuE6JlzunstaTg/aD0hVh3fUeGmGwY185HoxVOkmFnpus+gBNMdlWT79mZkmAACgFtQp0LIA1x1C69dmBUT/Tpfb6umlu9S1da7fTNxMKPqB4m1VOOv2HbwWawyYceNwD7sli68LRl9AOso1+1As6bfmeNbujwnhxPOUXDsie3xsx7bGsWwaJ3Mb9X2fPtyafWcu5aZhmvtoPMggF2LlC9flOff28kGbvhcd3js5N9lmqR8ZGnIGIPNz0cDgze/eOFxki4wq0k4MMKTnllfzJnOhnxlrFOw2tBSPY3JmPudxBtFx1uuJ1GWi8rXMcXkReS5WVuGXi/PRyJKPOAWH3hmJ86ye18/Mm1F5sOKKa2GWET3FiPc0NoO5DLucPzCaP10ff+fyou/ezf72Ss0hEj8x413+RItppuc5PPL58famdp3pn8feP48WndUfsEYDaVXECVp0aosp3movCqKmrhF3lUe2cjSR04gbIubiXCou2cZw/vtWQcLqzi8OYbieDzqTe85L6XPtIcIbiujUjwZFUq/4zhaD5amfwY0oUyGm2BNPI3LdzPWjSDex0LN80oxf4o4iMehQpDAO8nXc6Q8njtsU4vSDBVsBIAjUKdCWUG35PV6bpa3i2Smi35AvsW4Xf2rtNzP6Ljby4p+3k9fvagYMFUTen9imtP2/oMVixJfp0XoEUT9IefvXrQ/FNSxm+hnhkPEKM3WptzPIU2qij/Saeup30jeUeveHNej3detDqsg3TfrOCsuN0DTN/TQaZBCjkiJ/jpa2u83PiZqqJnrSoDPQjwyJjHFvfq7u6HMhR8jE/NGZAQZR6NUNh0u6T90x2eH2yyt1x+AZz4c2mO/o/l50BunCwQXdHPm7nDzXVFL5pta6MPIRZyTeyoPuqMrmzc5goteEsMmUnYnq6M9OHVObV3nRd++m4p3MUy7zU63yN6Jne+jAPS0168waeWy9XqdP5tyQFB2efKRqDKRVEI2yrjhBq/jVPupymp4embP0yCcTmLVhwr+Yagxbvp8TKqwevOIQQNPzwb7Deyiq0Wuu/8GiR599zwNW3GCei/P2hhurSy5/IxL3Cog7isSgg3XgA+DA4oE2LNgKAAGgToHggrbl93dtlqan7NnNqcslY7US08mMqX895Ss1Gw6P0XfRmajpyOr1HXCcN3OaxDM9uPSDhO5D0TeMyvQzwiFvftpVPIUtZj0xbsCReYF/PnWTjudNOWeRp7T1HV2Lp885T205DcQ6pSJNk3SucyzrxilUH27m9537zirKTag0d1R/kIETUkwRIkbkygvHOfiSHiQ5JVF3AVoxQiZrVcvULZHF0Kg8opcYmOD/C9VBe+Q6k0zhv6g8F+nSQ5EGvsc8mmv8ySOjkot06JGsLd/TR5+d6qlFrHdPdx9ylWiRm+ZJxyc0x/Kipkwy7hqIpkrKxsmn/GEhaouadWaNPCbqg9TJnBuSk1qNwHJyKjfRKOvxSTw7OOwptx4DEwOsqmFU3Qiyfd8UMqw+nOMg11hJly/vx6ADnA980vzYjJYq7LkXN4DTh1s3sLlkTbtmmuv6jGvAcNM7dLixOuDyN6d7sdaSGLARCZm5WSBSGAf52l++hQvVmdArnT/PZDwRAA4JdQoEFL4tv79rsxzRsc1tz263S8OhmE4mO3WSIReeJn0HtjhX9IOE7kPxWv+tXeeTpwZ0Iy/U1urpc85TXXmNk1n/oNaxbNjv27QPt27fWVW5CVGOPdQeZJCdHPzvetpNJ6K4rZCpETY87m4nRlX1iu51Hqu0zId2nvT8b9pl5rloDrzqubOLFza+cGZ50aPOaiR5q+Yp783oxqeT8mLK35HTJ0SxJkNeuu5ohvNJnxvGonUgHsu8n8d3FyTKBgOjdVWik/+W3tytCxo8Ntm4lH0/dFh9ti0T8ngo7Z4Pwof3YPRAahnro+pO9B1WhU8qdGiQvVkA4IhEd3o1XbD1GDoPAODwUKdAc6Hb8ofGbUV55zwHaTSi0WxJy+WGNrovDMpET4Ho10ZNbZO+ScdlsODc8pSoa+9lHlKzF0T0+gfH+gT1BfUhBVj4GbzJEapokSj7lAzJnG22F1cMervTV9ZJEd2BedmcHr+NHtGKRj87D0iNTdg6j1QnZW6kNlfx6cf7IrpT1/qolx4dPRT38qJHrUWHl35szNZZeznl78j45DGdx+2PHurGUGOiUabuPpB5IneXeKRkMDB6PDFeV0WVq/TgSFk9mG3Y2b4vtBFWn2094qAfZzVfyaOt++KT5qeK84R6dlfN+Wl5qWZI3bsuAy4gDXAQyYKtw+s79ZGhoyrAwqeOo8FO+2A3AFwe1CnQRBtt+YaaXv9HswYsua0/n9N8MqDBoCMePN8D2xMHBf0gkTp9KGWi/fmuRxnMGeYprdMRT0+raafEdMlifQE1462OQ+hj6eBo+5D23I9Xe5BBLaJoSTw9p5MaYcPj7qWiubzihUCYnidZPOEwvt2mCsR2NZaPml2Fnmf8oKJOiildc7zi+G5XXCGKBT1FYVWLVV5snutM6JlOo25uIc0trW45X+g7BEbPohNHQbqK7cfX6pGtaB2C6KTCqZ1MmyFOSCr9Y/Ec3kPqG4+ibVe3avGgQ6hRXjqPnnAlu6DXL0RD3j5P+eWUvyPjlceiNTZ421zdoR9LjPN4PSu5do6qW6o6wdVUXGIwcExxEeWwjPUiS/HjibKxnSw0rpTVg7phGA2GWb/fUliZ+7YecQig+flgv+E9iOiioKQcqEFsLkbWwbpqcf7oZh5RFoy0bFoWAVqjF2wVczeIrJoyUHPhiiemzHMSZ27acttLTNnGmTtXHwPABUOdAjW11ZZvJND1v2hnxvldhDPbz+DNZcqiTPpwCPL9IFk+fSiRsrDoJwRkf5+xN5F+e+hXOMs8paffEmkn1mKQOh3qdB/QQ/1WqXMsa6rVh+Qx7VZTgcqxs8+fP+/M19OnT/k6vYHlaMe73XFG9vLu3Tv913HhRgLHZ7RLR2ezm/X4896M/zJlP696zzazHR9v+2fWV283S//o0ah/DJc7Lv+WuPIrl8YWNfOc6VjzX0LnnWz6GK9eNmP45COdhqlXb7QbFeXXglcSBtcyInbZ4++65OuCfXqXFyMtbfnLeX9FcRS7yMfJ9bNjU1428mnQrM5kznlM4LojOpa5VzYMeaVxqwiHeqV/Q8Xd8jIqJ3nMbfnOsR60fr+lsEbct21Yl9v41u8F29vLWoPweoYr2DnG43dVnKu2jepDI21s54PMy9xn9DuFLz6XpILgsH/1qi7DLo7//A77YK8DNLMOzRSYqvw9WmZ26FN+PMsaXC7UY8cHdQqEEJftFtvy+702yyppa8tXFC738KTKkIxrfpsoziNrGplp4RvfdJl3CUvx/grqjyJ6P85l+GzzVEk4xcsMq8exbDdONfKNlP286n3EN3zVaW4jvmeD6ZIOzbhL/Tq6i5w/u8/NMcZZczTb6yKe+yPmm9tk4tuTc/ZtCh/pujQdmtyLx8BG1Otl8oVcvEcsfptJKWs+6nE+4nTN5qPBnDYz3rd+K/La5v4mMxrM9D7TuxzRbKnuhj0I7/ISLfTD29juVL648ndkvPIY1x1cLpa8cXpzzuNNH0ms8ejgYK4Wuk3CouuxeGXisvUUOC5F5TWuBwu+30pYE+7busThmJxaeH2s6IW6RafijsioPiyevqFKNC/qiM9NZkryyUmfxw/4eDCACz7vyAVbLWT+lo/gp/9ftL1mS7Hw/GnXFADQAtQp4KvltnwjXtdmWaqtnf4uh5Pz+lL0gdW4m1uufRLtz7qGQOIxp5HZzpd9HFXXiNa+AH19kOkLcApLQfp59yuI/ex2XEfo91XONk9F4Uz6riSdr3ZmWD2OZWPW3xLRyvch+eThYBqmuY8r8fSC/lv6+eef6ffff9fv9ufPP/+kb775Rr+DU3TKxxD5ryHx2Fp3SjSzDHY4WI379PEGHfjH6GjKRsM8ZoNyD/uCvHY4SHsAOHWoxwDO00mX7RauzeDCIU/tX4M0v7q6ktMVZ+FJBgBwtNILpZpzG7J4rr7M+gbOxALfYRfdgVPVVh4DAAAAAAAAd7g2g9CQp/Zvv2mOQQYAcBQtnrOgYZcrKVFRiVd3SAs5K8ezek8irF4T6cW94dK1lMcAAAAAAADAA67NIDTkqf3bb5pjkAEAnDnPf+djMKc5ziSgtZLHAAAAAAAAwAuuzSA05Kn922eaXz19+jQ3idL/+3//T/8FAAAAAAAAAAAAAABA9O7dO/1XAgs/QzCnfAyR/wDszrlsoNzDviCvHQ7SHgBOHeoxgPOEsg0Ap6qo/sJ0SQAAAAAAAAAAAAAAUAsGGQAAAAAAAAAAAAAAoBYMMgAAAAAAAAAAAAAAQC0YZAAAAAAAAAAAAAAAgFowyAAAAAAAAAAAAAAAALVgkAEAAAAAAAAAAAAAAGog+v8ByciVcLAk1LwAAAAASUVORK5CYII=;" vertex="1" parent="1">
          <mxGeometry x="2155" y="-330" width="2036.47" height="227" as="geometry" />
        </mxCell>
      </root>
    </mxGraphModel>
  </diagram>
</mxfile>
